<svg width="510" height="183" fill="none" xmlns="http://www.w3.org/2000/svg"><path d="M282.15 104.169h15.833V1.219h-13.722v61.615L268.427 1.219h-19.316v102.95h13.827v-74.58l19.212 74.58zm-59.534 0h15.411V1.219h-15.411v102.95zm-22.905 0h15.833l-21.428-57.071 21.428-45.879h-15.411L179.972 46.1V1.22h-15.411v102.95h15.411V72.475l4.75-9.42 14.989 41.114zm-91.833-24.712c0 16.512 8.233 25.931 23.433 25.931 15.094 0 23.433-9.42 23.433-25.931V25.932C154.744 9.42 146.511 0 131.311 0s-23.433 9.42-23.433 25.931v53.526zm15.411-54.634c0-7.314 3.061-10.195 8.022-10.195 4.855 0 8.022 2.77 8.022 10.195v55.631c0 7.314-3.061 10.195-8.022 10.195-4.856 0-8.022-2.77-8.022-10.195v-55.63zm-68.506 1.108c0 29.367 30.084 33.357 30.084 54.523 0 7.314-3.062 9.974-8.023 9.974-4.855 0-8.022-2.66-8.022-9.974V73.14H54.361v6.317c0 16.512 7.811 25.931 23.011 25.931 15.094 0 23.011-9.42 23.011-25.931C100.383 50.09 70.3 46.1 70.3 24.934c0-7.314 2.85-10.195 7.705-10.195 4.856 0 7.706 2.77 7.706 10.195v4.211h14.567v-3.213C100.172 9.42 92.466 0 77.478 0c-14.99 0-22.695 9.42-22.695 25.931zM0 79.458c0 16.4 8.233 25.82 23.433 25.82 15.095 0 23.434-9.42 23.434-25.931V25.93C46.76 9.42 38.527 0 23.433 0 8.233 0 0 9.42 0 25.931v53.526zm15.411-54.634c0-7.314 3.061-10.195 8.022-10.195 4.856 0 8.023 2.77 8.023 10.195v55.631c0 7.314-3.062 10.195-8.023 10.195-4.855 0-8.022-2.77-8.022-10.195v-55.63z" fill="#fff"/><path d="M307.06 25.931c0 29.367 30.083 33.357 30.083 54.523 0 7.314-3.061 9.974-8.022 9.974-4.855 0-8.022-2.66-8.022-9.974V73.14h-14.567v6.317c0 16.512 7.811 25.931 23.011 25.931 15.095 0 23.011-9.42 23.011-25.931 0-29.367-30.083-33.357-30.083-54.523 0-7.314 2.85-10.195 7.706-10.195 4.855 0 7.705 2.77 7.705 10.195v4.211h14.567v-3.213C352.449 9.42 344.743 0 329.754 0c-14.988 0-22.694 9.42-22.694 25.931z" fill="#DF0000"/><path d="M284.835 146.845c0 2.588-.508 4.482-1.525 5.684-.993 1.201-2.599 1.802-4.817 1.802h-2.322V164h-3.881v-24.675h6.203c2.218 0 3.824.6 4.817 1.802 1.017 1.201 1.525 3.107 1.525 5.718zm-4.436 3.015c.37-.67.555-1.675.555-3.015s-.185-2.345-.555-3.015c-.369-.67-1.051-1.005-2.045-1.005h-2.183v8.006h2.183c.994 0 1.676-.324 2.045-.971zm21.14 14.14h-4.055l-3.223-10.12h-2.183V164h-3.882v-24.675h6.238c2.241 0 3.847.577 4.818 1.733.993 1.132 1.49 2.98 1.49 5.545 0 1.64-.22 2.98-.659 4.02-.416 1.039-1.155 1.848-2.218 2.426L301.539 164zm-5.164-14.59c.324-.67.485-1.606.485-2.807 0-1.202-.161-2.126-.485-2.773-.323-.67-.959-1.005-1.906-1.005h-2.391v7.555h2.391c.947 0 1.583-.323 1.906-.97zm20.401-4.714c.208 1.433.312 3.755.312 6.966 0 3.212-.104 5.545-.312 7.001-.208 1.432-.705 2.599-1.49 3.5-1.179 1.41-2.773 2.114-4.783 2.114-2.01 0-3.604-.704-4.783-2.114-.762-.924-1.259-2.102-1.49-3.535-.208-1.455-.312-3.777-.312-6.966 0-3.188.104-5.498.312-6.931.231-1.455.728-2.645 1.49-3.569 1.179-1.41 2.773-2.114 4.783-2.114 2.01 0 3.604.704 4.783 2.114.785.901 1.282 2.079 1.49 3.534zm-3.743 12.511c.115-1.224.173-3.072.173-5.545 0-2.472-.058-4.309-.173-5.51-.093-1.224-.312-2.114-.659-2.668-.392-.624-1.016-.936-1.871-.936-.832 0-1.444.312-1.837.936-.577.924-.866 3.65-.866 8.178 0 4.529.289 7.255.866 8.179.393.624 1.005.936 1.837.936.855 0 1.479-.312 1.871-.936.347-.554.566-1.432.659-2.634zm16.406.347c0 2.079-.567 3.697-1.699 4.852-1.178 1.247-2.83 1.871-4.955 1.871-1.987 0-3.605-.658-4.852-1.975l2.703-2.599c.508.716 1.224 1.074 2.149 1.074.831 0 1.501-.277 2.01-.832.508-.577.762-1.374.762-2.391v-18.229h3.882v18.229zM343.74 164h-10.362v-24.675h10.362v3.5h-6.481v7.001h5.58v3.5h-5.58v7.174h6.481v3.5zm15.612-6.55c-.069 2.333-.751 4.089-2.044 5.268-1.109 1.039-2.53 1.559-4.263 1.559-2.01 0-3.604-.704-4.783-2.114-.762-.924-1.259-2.102-1.49-3.535-.208-1.455-.312-3.777-.312-6.966 0-3.188.104-5.498.312-6.931.231-1.455.728-2.645 1.49-3.569 1.179-1.41 2.773-2.114 4.783-2.114 1.756 0 3.2.531 4.332 1.594 1.247 1.132 1.906 2.865 1.975 5.198h-3.881c-.046-1.109-.243-1.906-.589-2.391-.37-.601-.982-.901-1.837-.901-.832 0-1.444.312-1.837.936-.347.554-.578 1.444-.693 2.668-.116 1.201-.173 3.038-.173 5.51 0 2.473.057 4.321.173 5.545.115 1.202.346 2.08.693 2.634.393.624 1.005.936 1.837.936.855 0 1.467-.3 1.837-.901.346-.531.543-1.34.589-2.426h3.881zm13.741-14.625h-4.158V164h-3.882v-21.175h-4.124v-3.5h12.164v3.5zm21.532 1.975c.208 1.41.312 3.686.312 6.828 0 3.142-.104 5.441-.312 6.896-.208 1.433-.705 2.576-1.49 3.431-1.202 1.363-2.796 2.045-4.783 2.045h-6.273v-24.675h6.273c1.987 0 3.581.681 4.783 2.045.785.854 1.282 1.998 1.49 3.43zm-3.57 6.828c0-2.403-.057-4.171-.173-5.303-.092-1.132-.312-1.964-.658-2.495-.439-.67-1.098-1.005-1.976-1.005h-2.287V160.5h2.287c.878 0 1.537-.335 1.976-1.005.346-.532.566-1.363.658-2.496.116-1.155.173-2.945.173-5.371zM408.788 164h-10.362v-24.675h10.362v3.5h-6.481v7.001h5.58v3.5h-5.58v7.174h6.481v3.5zm13.741 0h-10.362v-24.675h3.881V160.5h6.481v3.5zm6.786 0h-3.882v-24.675h3.882V164zm17.1-24.675L440.974 164h-4.02l-5.406-24.675h4.262l3.154 18.714 3.188-18.714h4.263zM458.979 164h-10.362v-24.675h10.362v3.5h-6.481v7.001h5.58v3.5h-5.58v7.174h6.481v3.5zm16.721 0h-4.055l-3.223-10.12h-2.183V164h-3.882v-24.675h6.238c2.241 0 3.847.577 4.818 1.733.993 1.132 1.49 2.98 1.49 5.545 0 1.64-.22 2.98-.659 4.02-.416 1.039-1.155 1.848-2.218 2.426L475.7 164zm-5.164-14.59c.324-.67.485-1.606.485-2.807 0-1.202-.161-2.126-.485-2.773-.323-.67-.959-1.005-1.906-1.005h-2.391v7.555h2.391c.947 0 1.583-.323 1.906-.97zm19.23-10.085l-4.782 15.006V164h-3.882v-9.669l-4.782-15.006h4.297l2.426 9.773 2.461-9.773h4.262z" fill="#fff"/></svg>