<svg width="488" height="146" fill="none" xmlns="http://www.w3.org/2000/svg"><path d="M390.546 144.189h21.916V1.687h-18.994v85.287L371.552 1.687h-26.738V144.19h19.14V40.956l26.592 103.233zm-82.405 0h21.332V1.687h-21.332V144.19zm-31.705 0h21.916l-29.66-78.997 29.66-63.505H277.02l-27.906 62.124V1.687h-21.332V144.19h21.332v-43.87l6.575-13.039 20.747 56.909zm-127.114-34.206c0 22.855 11.397 35.893 32.436 35.893 20.893 0 32.436-13.038 32.436-35.893v-74.09C214.194 13.039 202.798 0 181.758 0c-21.039 0-32.436 13.038-32.436 35.894v74.089zm21.332-75.623c0-10.124 4.237-14.112 11.104-14.112 6.721 0 11.104 3.835 11.104 14.112v77.003c0 10.124-4.237 14.112-11.104 14.112-6.721 0-11.104-3.835-11.104-14.112V34.36zM75.83 35.894c0 40.649 41.641 46.171 41.641 75.469 0 10.124-4.237 13.805-11.105 13.805-6.72 0-11.104-3.681-11.104-13.805v-10.124H75.246v8.744c0 22.855 10.812 35.893 31.851 35.893 20.893 0 31.851-13.038 31.851-35.893 0-40.65-41.64-46.172-41.64-75.47 0-10.124 3.945-14.112 10.666-14.112s10.665 3.835 10.665 14.112v5.83h20.163v-4.45C138.656 13.039 127.99 0 107.243 0S75.83 13.038 75.83 35.894zM0 109.983c0 22.702 11.396 35.74 32.436 35.74 20.893 0 32.436-13.038 32.436-35.894V35.894C64.726 13.038 53.329 0 32.436 0 11.396 0 0 13.038 0 35.894v74.089zM21.332 34.36c0-10.124 4.237-14.112 11.104-14.112 6.72 0 11.104 3.835 11.104 14.112v77.003c0 10.124-4.237 14.112-11.104 14.112-6.721 0-11.104-3.835-11.104-14.112V34.36z" fill="#fff"/><path d="M425.027 35.894c0 40.649 41.641 46.171 41.641 75.469 0 10.124-4.237 13.805-11.104 13.805-6.721 0-11.104-3.681-11.104-13.805v-10.124h-20.163v8.744c0 22.855 10.812 35.893 31.851 35.893 20.894 0 31.852-13.038 31.852-35.893 0-40.65-41.641-46.172-41.641-75.47 0-10.124 3.945-14.112 10.666-14.112s10.666 3.835 10.666 14.112v5.83h20.163v-4.45C487.854 13.039 477.188 0 456.441 0c-20.748 0-31.414 13.038-31.414 35.894z" fill="#DF0000"/></svg>