<svg width="25" height="26" fill="none" xmlns="http://www.w3.org/2000/svg"><path d="M20.584 9.632a6.573 6.573 0 00-1.787-3.382 6.497 6.497 0 00-3.357-1.8 1.004 1.004 0 00-1.042.435 1.025 1.025 0 00.287 1.416 1 1 0 00.367.15 4.46 4.46 0 012.314 1.237 4.512 4.512 0 011.228 2.33c.053.264.207.496.43.645a1.005 1.005 0 001.399-.275c.15-.223.206-.496.157-.76l.004.004zm4.409.07a11.022 11.022 0 00-3.133-6.549A10.88 10.88 0 0015.354.006a1.007 1.007 0 00-.744.218 1.021 1.021 0 00.52 1.808 8.816 8.816 0 015.306 2.556 8.932 8.932 0 012.541 5.342c.028.249.145.479.33.646a1.008 1.008 0 001.167.134 1.014 1.014 0 00.485-.61 1.03 1.03 0 00.034-.398zM21.138 15.4h-.009c-.98-.13-1.942-.372-2.868-.719a3.2 3.2 0 00-3.388.728l-.839.845a16.657 16.657 0 01-5.169-5.206l.839-.845a3.266 3.266 0 00.723-3.411 13.307 13.307 0 01-.715-2.89V3.89a3.25 3.25 0 00-1.086-1.996 3.207 3.207 0 00-2.12-.787H3.209c-.095 0-.192 0-.287.014A3.209 3.209 0 00.746 2.272a3.255 3.255 0 00-.733 2.363v.016a23.162 23.162 0 003.531 10.048 22.687 22.687 0 006.905 6.955 22.789 22.789 0 009.931 3.557h.019c.096.008.192.012.29.012h.012a3.203 3.203 0 002.265-.956c.6-.608.936-1.43.934-2.288v-3.31a3.25 3.25 0 00-.765-2.163 3.205 3.205 0 00-1.997-1.106zm.739 3.257v3.328c0 .318-.123.622-.345.848a1.186 1.186 0 01-.838.354h-.105a20.764 20.764 0 01-9.04-3.242h-.009a20.647 20.647 0 01-6.289-6.34v-.007a21.103 21.103 0 01-3.218-9.154 1.204 1.204 0 01.274-.87c.202-.242.49-.394.803-.423h3.422a1.19 1.19 0 011.176 1.026c.15 1.14.426 2.257.825 3.334a1.208 1.208 0 01-.266 1.259l-1.395 1.4a1.021 1.021 0 00-.163 1.225 18.688 18.688 0 006.98 7.03 1.004 1.004 0 001.215-.166l1.394-1.4a1.19 1.19 0 011.25-.267 15.07 15.07 0 003.307.83c.288.041.55.188.738.412a1.2 1.2 0 01.28.801.057.057 0 01.004.022z" fill="#fff"/></svg>