<svg width="51" height="51" fill="none" xmlns="http://www.w3.org/2000/svg"><path d="M0 3.076C0 1.626 0 .902.45.451.9.001 1.626.001 3.075.001h44.592c1.45 0 2.175 0 2.625.45.45.45.45 1.176.45 2.625v44.592c0 1.45 0 2.174-.45 2.625-.45.45-1.175.45-2.625.45H3.075c-1.45 0-2.174 0-2.625-.45C0 49.843 0 49.118 0 47.668V3.076z" fill="#DF0000"/><path d="M38.44 16.636c0-2.303-2.03-4.334-4.333-4.334H16.635c-2.303 0-4.334 2.031-4.334 4.334v17.472c0 2.302 2.031 4.334 4.334 4.334h8.803v-9.887h-3.25V24.22h3.25v-1.76c0-2.98 2.168-5.553 4.876-5.553h3.522v4.334h-3.522c-.406 0-.812.406-.812 1.219v1.76h4.334v4.335h-4.334v9.887h4.605c2.302 0 4.334-2.032 4.334-4.334V16.636z" fill="#fff"/></svg>