<svg width="80" height="75" fill="none" xmlns="http://www.w3.org/2000/svg"><g clip-path="url(#clip0)" fill="#fff"><path d="M27.262 24.521c.34.341.47.697.534 1.162.21 1.508.384 3.053 1.527 4.22.651.664.814 1.43.693 2.301a2.958 2.958 0 00.555 2.215c.42.582.538 1.238.6 1.938.136 1.573.213 3.165.687 4.681.228.732.13 1.386-.088 2.064-.085.264-.179.53-.31.774-.191.354-.058.512.288.599.724.184 1.444.152 2.17 0 .727-.152.75-.194.49-.854-.283-.724-.658-1.444-.517-2.25.19-1.09.218-2.177.13-3.279-.115-1.438-.563-2.852-.28-4.32.103-.53.124-1.088-.006-1.613-.28-1.135-.211-2.294-.334-3.442 0-.708.017-1.415-.007-2.123-.01-.323.052-.508.417-.446.504.086.987.08 1.471-.143.172-.08.48.064.452.264-.129.9.198 1.748.241 2.625.048.982.384 1.955.202 2.94-.155.836-.097 1.627.217 2.404.268.663.426 1.334.39 2.06-.04.797-.027 1.599.005 2.397.036.892.093 1.8.525 2.6.271.502.3.966.158 1.492a5.523 5.523 0 01-.396 1.097c-.18.351-.067.508.29.596.88.216 1.743.137 2.6-.117.314-.093.341-.266.207-.55-.252-.537-.46-1.094-.702-1.637-.167-.378-.247-.711.141-1.03.143-.116.208-.348.264-.54.28-.976.13-1.955-.007-2.931-.192-1.37-.57-2.717-.066-4.123.338-.947.06-1.892-.36-2.804-.535-1.157-.821-2.356-.226-3.599a5.55 5.55 0 00.505-3.225c-.277-1.91.038-3.689.904-5.396.207-.407.224-.847.144-1.304-.15-.858-.836-1.344-1.326-1.964-1.145-1.448-.462-4.027 1.275-4.644 1.484-.527 3.745-.36 5.108 1.196.117.133.21.252.189.438-.187 1.643-.33 3.301-1.308 4.725-.253.368-.227.68.057 1.006.815.936 1.886 1.274 3.082 1.348.61.037 1.031-.212 1.328-.739.247-.436.4-.918.711-1.323 1.07-1.39 1.978-2.887 2.853-4.402.35-.606.599-1.257.802-1.925.393-1.293.284-2.61.235-3.933-.029-.767-.197-1.474-.582-2.12-.226-.382-.325-.715-.13-1.144.12-.263.135-.578.167-.872.023-.22-.086-.387-.333-.308-.632.201-.51-.163-.424-.525.127-.525.246-1.052.268-1.593.006-.142.06-.326-.081-.414-.163-.102-.266.084-.375.163a9.985 9.985 0 00-1.558 1.445c-.222.248-.431.318-.719.115-.134-.095-.297-.15-.449-.22-2.793-1.27-5.687-1.58-8.705-.984-2.382.47-4.666 1.148-6.598 2.682-.52.412-1.108.648-1.696.925-.54.254-1.11.44-1.631.726-2.223 1.22-4.02 2.904-5.421 5-1.934 2.892-2.589 6.022-1.648 9.404.581 2.086 1.897 3.731 3.4 5.234zm19.921-16.56c.179-.035.762.486.825.715l.01-.003c.162-.223.31-.06.443.04.038.029-.025.2-.06.173-.177-.14-.242.243-.414.07-.117-.117-.15-.204.021-.278v-.002c-.358.11-1.016-.208-1.046-.516-.014-.15.122-.18.221-.2zm-8.418 33.748c-.383.161-.578.11-.732-.172.252-.06.434.01.732.172z"/><path d="M53.77 33.58c-.672-.755-1.594-1.23-2.394-1.844-.624-.479-1.199-1.033-1.522-1.733a8.769 8.769 0 01-.75-2.553c-.043-.338-.187-.448-.518-.47-1.213-.084-2.433.031-3.64-.154-.256-.04-.234.11-.275.286-.343 1.467-.599 2.95-.84 4.436-.166 1.015-.228 2.034.035 3.048.344 1.33.188 2.647-.076 3.969-.303 1.512-.726 2.988-1.209 4.45-.125.378-.212.87.026 1.114.196.2.669-.037 1.008-.144a.794.794 0 00.493-.42c.187-.367.456-.675.756-.963.406-.39.726-.851 1.002-1.34.07-.122.204-.25.112-.408-.355-.602-.288-1.183.017-1.785.159-.313.052-.506-.35-.552-.526-.06-1.109-.632-.926-.912.3-.461.311-1.142.926-1.373.379-.142.59-.364.594-.775.005-.374.172-.44.421-.166.694.763 1.311 1.574 1.479 2.63.038.239.029.532.26.647.45.224.759.626 1.245.819.922.366 1.411 1.11 1.542 2.092.042.318.128.63.194.946l.121-.027c0-.278.03-.56-.006-.834-.083-.637-.432-1.18-.67-1.762-.118-.294-.294-.64-.009-.913.14-.134.825.4.92.7.021.07.016.15.033.221.067.271.104.555.212.808.562 1.32.488 2.527-.69 3.617 1.07 0 2.035-.032 2.995.01.752.033 1.243-.283 1.601-.903.198-.34.378-.691.451-1.073.642-3.331-.352-6.201-2.569-8.69zm25.959 33.848c-.44-.316-.644-.755-.714-1.275-.05-.368-.12-.733-.176-1.1-.215-1.443-.33-2.94-2.042-3.594.243-.144.416-.239.581-.345 2.279-1.464 2.373-4.243.226-5.877-2.144-1.631-5.653-1.412-7.646-.05-.34.232-.63.52-.813.906-.115.24-.107.437.133.573.49.277.584.715.582 1.232a906.9 906.9 0 000 7.841c.002.682-.04 1.33-.486 1.9-.225.287-.094.51.258.53.466.026.935.018 1.401-.002 1.274-.056 1.862-.609 1.978-1.875.11-1.207.055-2.418.052-3.628 0-.386.118-.527.532-.471 1.031.139 1.646.644 1.868 1.706.193.926.276 1.876.471 2.802.135.636.376 1.282 1.124 1.438.789.164 1.599.18 2.405.14.21-.011.425-.063.508-.283.095-.25-.052-.432-.242-.568zm-3.787-7.961c-.42.877-1.397 1.361-2.48 1.26-.321-.03-.41-.178-.403-.467.011-.483.003-.966.003-1.449h.002c0-.446.005-.892-.001-1.338-.005-.36-.049-.712-.37-.948-.278-.205-.106-.273.091-.361.933-.42 2.175-.236 2.821.423.62.633.776 1.964.337 2.88zm-9.048 4.258c.01-2.482.008-4.965.003-7.447-.001-.464.053-.89.453-1.2.18-.14.251-.33.14-.545-.115-.222-.323-.222-.535-.19a11.95 11.95 0 01-3.358.006c-.242-.033-.456.006-.567.249-.104.228.015.403.191.528.362.256.45.612.441 1.026-.012.633-.003 1.267-.003 1.9v1.844c0 .633.018 1.267-.005 1.9-.02.565.089 1.123.018 1.694-.063.495.01 1.006-.027 1.506-.075.976-.697 1.654-1.533 1.72a1.68 1.68 0 01-1.787-1.297c-.074-.303-.081-.628-.084-.943-.01-1.057-.003-2.113-.003-3.17 0-1.658.003-3.316-.003-4.975-.002-.479.035-.93.465-1.251a.423.423 0 00.132-.552c-.094-.194-.295-.22-.487-.192a12.063 12.063 0 01-3.468 0c-.197-.029-.383.033-.48.218-.096.18-.08.37.096.5.465.345.508.84.508 1.353v3.856h.02c0 1.34-.037 2.682.01 4.021.047 1.326.62 2.394 1.797 3.092 1.349.8 2.801 1.103 4.34.773 1.545-.33 2.843-1.031 3.444-2.617.223-.582.28-1.193.282-1.807zm-34.731-7.328c0-.519.082-.997.48-1.376.12-.116.244-.246.143-.436-.112-.212-.303-.257-.524-.225a7.755 7.755 0 01-2.348-.008c-.216-.034-.42.013-.522.23-.092.197-.016.377.146.495.302.218.376.525.434.866.068.39.07.78.055 1.169-.01.256.115.247.338.255-.342.159-.337.431-.33.72.01.435 0 .87 0 1.306.002.187.026.4-.194.473-.211.068-.347-.108-.468-.245a53.74 53.74 0 01-1.167-1.358c-.977-1.187-2.12-2.254-2.628-3.771-.138-.412-.491-.524-.918-.34-.92.4-1.628 1.043-2.187 1.858-.173.252-.172.507.132.656.459.226.557.626.557 1.07.004 2.79.005 5.582-.003 8.373-.001.49-.127.943-.437 1.35-.324.428-.189.67.357.714 1.258.097 2.075-.624 2.111-1.958.051-1.847.042-3.696.062-5.545.002-.217-.063-.485.188-.596.28-.125.383.155.519.312 1.101 1.267 2.192 2.544 3.298 3.809.92 1.053 1.036 2.176.307 3.39-.223.37-.117.533.286.615 1.107.224 2.085-.47 2.205-1.585.07-.648.108-1.297.107-1.95-.007-2.757.004-5.512 0-8.268zm-2.584 3.982c.4.09.685.188.933.532-.425.01-.653-.191-.933-.532zm-8.682 4.919c-.308-.146-.507.11-.718.3-.291.261-.574.645-.916.716-1.072.226-2.175.196-3.273.2-.528.003-.804-.053-.589-.661.065-.184.021-.407.021-.612.002-1.024 0-2.049.002-3.073 0-.18-.047-.37.22-.438.738-.186 1.813.203 2.195.81.312.496.679.533 1.038.051a3.64 3.64 0 00.72-2.132c.01-.445-.21-.666-.674-.552-.994.245-2.007.192-3.016.216-.364.008-.488-.12-.495-.485-.02-1.124.123-2.255-.11-3.373-.035-.17-.024-.29.204-.284 1.68.045 3.441-.277 4.807 1.135.292.301.678.153.678-.231-.002-.912-.197-1.774-.86-2.462-.238-.246-.524-.348-.865-.234-.452.15-.92.152-1.39.149l-5.773-.037c-.188-.001-.395-.025-.49.184-.092.204-.064.431.123.556.499.332.505.83.505 1.336.002 1.584.001 3.167.001 4.75h.007c0 1.603.002 3.205-.001 4.807-.002.564-.066 1.116-.415 1.59-.113.154-.236.301-.145.505.105.232.323.143.495.143 1.705-.006 3.411-.007 5.116-.036.672-.011 1.346-.014 1.985.189.483.153.793-.014 1.073-.36.463-.573.667-1.239.703-1.961.013-.251.137-.564-.163-.706zm34.343 2.329a8.362 8.362 0 01-.721-1.624c-.92-2.84-1.846-5.678-2.788-8.51-.182-.548-.12-1.309-1.003-1.388h.578c-.225-.502-.292-.943-.122-1.414.082-.227.009-.498-.293-.482-1.09.055-2.158.225-3.066.894-.241.178-.375.446-.173.73.392.553.295 1.113.101 1.7-.784 2.383-1.548 4.772-2.336 7.153-.342 1.032-.566 2.13-1.464 2.89-.132.11-.133.269-.082.411.07.194.249.21.422.188a10.183 10.183 0 012.576.002c.189.023.39.017.475-.2.075-.192.015-.366-.142-.501-.333-.286-.344-.622-.2-1.01.142-.382.24-.78.363-1.169.064-.204.154-.372.42-.37.936.008 1.873-.002 2.809.007.262.003.512.261.514.456.007.871.314 1.648.808 2.352.162.23.411.382.7.424.761.112 1.528.147 2.296.113.484-.023.579-.217.327-.652zm-8.4-4.046c.05-.246-.457-.183-.262-.49.048-.076.136-.194.267-.073.179.166.193.343-.006.563zm3.147-.254c-.543-.002-1.086-.002-1.628 0-.246.002-.33-.077-.243-.338.355-1.064.692-2.134 1.036-3.202l.123.01c.324 1.06.646 2.121.973 3.18.076.247-.011.35-.26.35zm2.267.185c.43.236.512.634.806.823-.467-.019-.591-.376-.806-.823zM10.242 65.83c-.323-.488-.768-.172-1.144.02-.874.444-1.802.675-2.766.482-1.453-.29-2.102-1.41-2.48-2.684-.49-1.66-.439-3.352.01-5.015.23-.846.618-1.638 1.278-2.256 1.261-1.181 3.045-.821 3.743.75.083.187.156.381.263.553.161.26.403.396.716.306.299-.086.387-.325.385-.609-.004-.559.02-1.12-.025-1.675-.037-.44-.088-.885-.306-1.293-.174-.328-.433-.436-.738-.262-.606.347-1.2.252-1.84.105-2.07-.478-3.848.083-5.315 1.601C.568 57.36.003 59.203 0 60.455c.016 2.769.468 4.11 1.577 5.631 1.988 2.73 5.758 3.043 8.23.872.333-.292.758-.643.435-1.128zm33.842-8.902c.326-.698.513-1.431.345-2.215-.09-.418-.326-.609-.759-.54-.291.047-.583.13-.875.128-2.75-.017-5.506.2-8.25-.136-.381-.047-.6.099-.698.472-.223.845-.024 1.624.37 2.363.202.377.538.376.782-.013.473-.752 1.195-.945 2.012-1.009.44-.034.572.095.569.549-.02 3.203-.012 6.407-.01 9.611 0 .523-.06 1.007-.438 1.435-.31.352-.167.619.318.642.392.02.786-.02 1.18-.038 1.393-.064 1.99-.64 2.089-2.019.019-.26.023-.52.024-.782v-6.444h.005c0-.838.008-1.677-.005-2.515-.005-.335.113-.472.462-.436.8.083 1.55.224 2.023.99.256.414.651.396.856-.043zm5.664-32.931c.202-.069.215.128.358.137.392.024.81.323 1.154-.048.18-.195-.27-.91-.761-1.037-.945-.246-1.484-.89-1.999-1.638-.522-.76-1.242-1.306-2.195-1.404-.544-.056-1.009-.252-1.446-.547a19.517 19.517 0 01-.949-.692c-.342-.263-.608-.203-.84.152a1.997 1.997 0 00.07 2.244c.539.733 1.161 1.441 1.331 2.359.149.8.667 1.169 1.351 1.378.73.224 1.484.364 2.218.577.892.259.887.275.885-.688 0-.296-.114-.677.028-.868.19-.254.531.164.795.075zm-31.801 49.13c-.267-.027-.462.014-.534.337-.066.3-.208.584-.343.947-.14-.4-.263-.718-.358-1.044-.08-.275-.283-.24-.488-.242-.26-.003-.24.173-.24.344 0 .39-.006.781.003 1.171.003.13-.069.322.176.331.236.01.203-.17.206-.311.006-.323.002-.647.002-1.025.243.338.283.696.418 1.015.058.138.06.348.309.326.204-.018.199-.184.26-.314.142-.308.166-.667.423-1.005 0 .404-.002.738 0 1.071 0 .113.004.227.16.242.188.017.214-.105.215-.246.002-.39.01-.781-.002-1.171-.004-.164.09-.396-.207-.426zm-4.112.246c0-.113.01-.228-.15-.243-.19-.017-.21.11-.212.25-.002.295 0 .59 0 .884l-.094.024c-.18-.32-.382-.633-.537-.967-.11-.234-.315-.13-.47-.175-.1-.03-.117.113-.117.206 0 .465-.001.93.002 1.396 0 .113.01.223.172.225.159.003.181-.098.182-.216.002-.325 0-.65 0-1.143.27.483.47.808.634 1.152.107.225.28.232.465.198.223-.042.122-.24.125-.366.012-.407 0-.817 0-1.225zm31.001-.247c-.184.014-.15.167-.178.292-.037.162.157.436-.218.451-.304.013-.564.015-.489-.415.025-.141.024-.323-.194-.327-.263-.003-.211.207-.213.364-.005.371-.008.742 0 1.113.005.15-.07.369.201.37.267.001.226-.217.205-.366-.063-.456.188-.48.528-.415.335.064.143.322.178.49.03.146 0 .31.229.294.185-.013.186-.149.187-.28.002-.204 0-.409 0-.613.001-.222-.002-.445.002-.667.004-.168-.032-.307-.238-.29zm18.518.004c-.125.012-.144.1-.145.194-.003.33-.001.662-.001 1.126-.262-.465-.46-.797-.636-1.14-.099-.193-.255-.197-.424-.18-.233.024-.166.212-.167.345-.004.426 0 .853.012 1.278.003.11.036.225.192.218.151-.007.172-.118.174-.232.003-.308 0-.616 0-.986.376.287.423.695.619 1.01.104.168.22.225.406.215.152-.008.184-.096.185-.217.001-.482.003-.963-.002-1.445 0-.13-.07-.2-.213-.187zm-25.149-.003c-.452.115-.134.5-.221.746-.023.066-.003.147-.003.221v.612c.002.133.006.266.195.271.337.01.685.039.98-.145.426-.264.495-.67.35-1.12-.144-.45-.742-.729-1.301-.585zm.383 1.514c-.519-.025-.014-.472-.301-.602.19-.207-.155-.58.284-.588.361-.007.576.2.578.59.002.384-.19.617-.56.6zm30.934-.644c.255-.653.14-.851-.59-.875-.36-.08-.527.073-.483.503.034.33.001.668.01 1.001.004.133-.06.323.17.342.242.02.178-.171.206-.308.029-.148-.111-.38.103-.43.239-.054.266.203.345.362.032.067.069.133.09.203.056.192.215.22.355.165.213-.083.005-.212-.007-.316-.027-.225-.298-.395-.2-.647zm-.535-.088c-.21 0-.143-.17-.156-.285-.021-.188.096-.213.243-.198.155.016.229.105.234.255-.02.2-.17.229-.321.228zm-58.429-.789c-.184.005-.26.102-.32.254-.167.432-.345.859-.515 1.289-.038.096-.12.223.015.29.125.063.222.006.318-.123.297-.403.678-.408.964-.005.132.188.261.16.462.104-.206-.522-.407-1.036-.61-1.548-.057-.14-.119-.266-.314-.26zm.14 1.092c-.019.04-.257.049-.296-.002-.167-.215.085-.386.088-.714.175.325.304.505.207.716zm38.434-.487c.103-.106.02-.336-.127-.444-.294-.216-.655-.21-.968-.131-.274.07-.097.383-.137.584-.018.09-.003.185-.003.278 0 .222-.006.445.003.668.004.117-.044.278.159.29.25.016.171-.177.2-.308.033-.148-.11-.377.102-.431.239-.061.283.179.35.348.036.086.076.17.111.255.065.156.211.17.33.129.221-.08.037-.215.004-.31-.105-.308-.353-.588-.024-.928zm-.385-.053c.017.177-.134.234-.296.236-.197.023-.18-.11-.198-.241-.034-.259.144-.226.302-.257.265-.052.184.181.192.262zm-28.581-.302c-.06-.16-.137-.249-.315-.248-.183 0-.25.106-.308.26-.196.516-.407 1.025-.615 1.542.175.059.295.092.42-.065.348-.437.668-.446.985-.015.102.139.206.157.325.12.225-.072.048-.226.018-.308-.155-.433-.348-.854-.51-1.285zm-.199.852c-.042.044-.237.035-.26-.006-.122-.217.023-.397.153-.587.026.203.317.373.107.593zm6.161.317c-.063-.394-.49-.631-.444-1.082.015-.143-.075-.32-.3-.337-.258-.021-.308.161-.377.331a46.9 46.9 0 00-.487 1.241c-.03.082-.164.203.01.27.104.041.215.014.306-.08.45-.465.595-.47 1.012-.01.093.102.186.112.294.096.092-.014.101-.09.053-.26.002.001-.052-.081-.067-.17zm-.672-.314c-.05.048-.294 0-.297-.025-.03-.216.041-.412.24-.633-.013.267.287.436.057.658zm25.624-.835c-.056-.153-.122-.258-.305-.27-.226-.015-.283.144-.344.298-.2.497-.394.996-.597 1.513.299.093.376-.025.483-.217.154-.277.683-.244.873.019.069.094.083.307.25.215.138-.075.184-.235.095-.425-.172-.369-.313-.751-.454-1.133zm-.22.839c-.054.046-.292-.002-.297-.032-.038-.219.062-.404.262-.715-.033.356.291.525.035.747zm-14.123-.772l.223-.002c.112-.001.171-.056.167-.168-.002-.081-.048-.13-.125-.162-.527-.226-.982.055-.983.61v.278c0 .995 0 1 .735.965.145-.006.382.091.368-.19-.012-.24-.223-.125-.35-.143-.156-.023-.343.047-.346-.23-.002-.28.188-.216.343-.222.132-.005.297.01.302-.164.006-.247-.21-.137-.335-.158-.135-.023-.312.05-.307-.2.006-.226.154-.215.308-.214zm30.536-.029c.054 0 .108.023.163.024.109.002.174-.046.167-.165-.004-.082-.045-.13-.121-.163-.522-.226-.988.057-.99.604v.334c0 .965 0 .967.785.917.115-.007.297.069.312-.126.017-.211-.162-.201-.314-.215-.147-.013-.35.084-.372-.196-.025-.318.198-.243.37-.249.14-.004.286-.015.27-.194-.02-.198-.198-.116-.312-.129-.156-.017-.36.05-.325-.23.028-.237.207-.21.367-.212zm-14.622-.284c-.36.001-.168.33-.208.515-.027.123-.005.257-.005.387v.664c.002.136.016.264.2.266.182.001.226-.117.2-.257-.063-.344.121-.414.419-.474.404-.08.54-.394.393-.762-.185-.47-.643-.341-.999-.34zm.436.826c-.26.028-.249-.117-.24-.247.008-.114-.061-.283.148-.291.172-.008.294.077.306.252.013.175-.099.266-.214.286zm7.609-.52c.093.004.188.005.28-.003.096-.009.2-.037.174-.159-.012-.058-.077-.126-.135-.15-.549-.23-.96.035-.96.61v.224c0 1.028 0 1.032.701 1 .148-.006.399.09.39-.173-.009-.257-.26-.143-.4-.144-.185-.002-.332.017-.333-.238-.001-.222.131-.222.291-.234.132-.009.348.084.36-.14.015-.289-.238-.132-.37-.17-.115-.03-.273.038-.28-.175-.005-.208.106-.255.282-.248zm-33.029.457c-.163-.078-.403-.115-.344-.357.055-.225.276-.11.43-.121.089-.006.203.027.224-.1.027-.156-.114-.176-.214-.196-.328-.066-.658-.063-.823.285-.182.385.08.574.386.73.155.08.39.117.323.375-.041.16-.202.123-.328.143-.14.024-.398-.159-.399.114 0 .237.273.184.447.213.32-.013.606-.092.695-.44.085-.333-.127-.516-.397-.646zm31.217-.484c.123-.003.351.115.34-.134-.008-.175-.209-.177-.36-.186-.59-.035-1.033.346-1.055.904-.024.59.357.98.977.983.156-.024.43.042.425-.209-.005-.257-.267-.107-.408-.115-.391-.023-.59-.233-.592-.598-.001-.424.242-.635.673-.645zm-26.007.48c-.16-.079-.406-.107-.347-.353.054-.223.275-.114.429-.124.085-.006.197.046.216-.091.007-.045-.017-.125-.05-.14-.309-.142-.636-.17-.876.096-.238.263-.193.547.115.754.107.072.232.117.345.181.102.058.178.139.157.267-.029.177-.174.148-.3.175-.14.029-.39-.172-.403.1-.012.254.26.195.462.229.281-.033.578-.1.661-.451.08-.334-.142-.51-.41-.643zm-3.235.005c-.162-.075-.412-.112-.364-.348.043-.215.271-.132.431-.136.087-.002.198.045.22-.09.026-.155-.104-.187-.208-.205-.306-.054-.63-.061-.786.26-.173.358.018.594.353.752.158.075.404.127.344.368-.052.207-.265.157-.462.144-.066.043-.24-.14-.267.1-.013.11.056.179.154.2.367.08.748.082.94-.288.178-.345-.021-.602-.355-.757zm26.259-.768c-.072-.026-.247.02-.25.048-.032.288-.382.347-.404.765-.192-.317-.308-.505-.42-.696-.08-.136-.218-.177-.335-.12-.195.095-.032.209.024.305.25.424.596.812.49 1.366-.02.1.047.168.165.169.109.001.201-.048.186-.151-.087-.592.28-1.01.548-1.467.041-.073.131-.172-.004-.22zm-20.942-.016c-.131-.008-.263-.002-.393-.001l-.506.001c-.1 0-.187.028-.199.144-.01.103.026.194.146.18.474-.058.382.274.386.541.002.168-.023.34.006.501.03.17-.148.478.196.47.295-.005.145-.285.16-.442.023-.258.007-.52.006-.781 0-.157 0-.298.228-.29.114.005.3.057.303-.141.004-.228-.195-.173-.334-.182zm7.748.02c-.408-.01-.816-.01-1.225.002-.084.002-.098.097-.094.174.005.088.058.138.142.128.468-.054.38.277.382.544.003.24-.001.481.003.722.002.133.008.269.2.26.2-.007.173-.155.176-.28.005-.185-.01-.371.004-.555.024-.304-.182-.756.433-.71.05.004.102-.036.176-.064-.108-.125-.151-.22-.197-.221zm22.637-.02c-.092-.01-.186-.003-.28-.003v.004c-.186 0-.373-.002-.56 0-.111.001-.168.063-.168.172 0 .08.027.159.12.147.507-.064.403.295.409.576.003.186-.012.373.004.558.013.145-.092.374.174.39.29.016.18-.225.189-.366.016-.278 0-.557.007-.836.003-.136-.05-.31.194-.317.13-.004.357.064.328-.17-.03-.235-.263-.137-.416-.155zM22.3 74.66c-.366.048-.387-.15-.371-.425.017-.277.004-.556.003-.833 0-.133.003-.274-.188-.272-.189.002-.19.145-.19.274-.004.352.022.707-.008 1.056-.034.402.073.615.472.517.122 0 .197.006.27-.001.136-.014.34.061.346-.165.006-.25-.219-.165-.334-.15zm8.73-1.573c-.136.002-.208.042-.208.188.002.502.005 1.005-.003 1.508-.002.184.091.206.245.21.188.004.21-.097.208-.244-.005-.223-.001-.447-.001-.67 0-.261-.007-.522.002-.783.007-.184-.09-.212-.244-.209zm-15.84.192c0-.142-.064-.191-.203-.192-.15 0-.255.016-.248.204.008.242.002.485.002.727s.002.484-.001.726c-.002.143.012.253.204.248.148-.004.25-.018.248-.204a77.485 77.485 0 01-.003-1.51zm31.171.948l.01-.019-.026.002.016.017zm.444-1.105c-.13.002-.263-.012-.392.002-.18.02-.455-.11-.465.228-.006.235-.123.538.28.596.16.023.21.117.14.259.065-.006.131-.01.195-.02.151-.025.398.086.412-.155.015-.27-.243-.124-.379-.16-.097-.027-.239.037-.255-.132-.009-.09-.034-.212.065-.247.118-.041.254-.032.382-.041.108-.008.239.015.24-.15.003-.145-.097-.18-.223-.18zm-.07 1.527c-.37.055-.45-.121-.392-.428-.243-.065-.378-.02-.406.288-.066.726.47.407.782.464.133.024.323.046.311-.188-.01-.206-.19-.151-.295-.136z"/><path d="M46.345 74.209l-.001.011.017.005-.016-.016zM48.02 8.674l-.011.003v.002a.052.052 0 01.01-.005zm.001-.002h-.003v.001l.003-.001z"/></g><defs><clipPath id="clip0"><path fill="#fff" d="M0 0h80v75H0z"/></clipPath></defs></svg>