<svg width="48" height="59" fill="none" xmlns="http://www.w3.org/2000/svg"><rect width="48" height="58.878" rx="4.461" fill="#DF0000"/><path d="M21.87 14.692c.27 0 .27 0 0 0 .27-1.025.54-1.537.54-2.305v-.513c.27-1.28.27-2.305 0-2.56v-.257l-.27-.256s0 .256-.27.256c-.54 1.537-.54 3.33 0 5.635zm-8.098 17.672c-.54.256-1.08.512-1.35.769-1.889 1.536-3.238 3.329-3.508 4.097 1.62-.256 3.239-1.792 4.858-4.866.27 0 .27 0 0 0zm24.833-3.842c-.27-.256-1.35-1.024-5.129-1.024h-.54v.256c1.89.768 3.78 1.28 5.129 1.28h.81v-.256s-.27 0-.27-.256zm1.08 2.05c-.54.255-1.35.512-2.43.512-2.16 0-5.398-.513-8.098-1.793-4.588.512-8.097 1.024-10.796 2.049-.27 0-.27 0-.54.256-3.239 5.378-5.938 7.94-8.097 7.94-.54 0-.81 0-1.08-.257l-1.35-.768v-.256c-.27-.512-.27-.768-.27-1.28.27-1.281 1.89-3.586 5.129-5.38.54-.255 1.35-.768 2.43-1.28.809-1.28 1.618-2.817 2.698-4.61 1.35-2.561 2.16-5.122 2.97-7.428-1.08-3.073-1.62-4.866-.54-8.452.27-1.024 1.08-2.049 2.159-2.049h.54c.54 0 1.08.256 1.62.513 1.889 1.793 1.079 5.89 0 9.22v.256c1.079 2.817 2.698 5.123 4.318 6.66.81.512 1.35 1.024 2.429 1.536 1.35 0 2.43-.256 3.509-.256 3.239 0 5.398.512 6.208 1.793.27.512.27 1.024.27 1.537-.27.256-.54 1.024-1.08 1.536zm-17.545-9.99c-.54 1.793-1.62 3.842-2.7 6.148-.54 1.024-1.08 1.792-1.619 2.817h.54c3.509-1.28 6.748-2.05 8.907-2.305-.54-.256-.81-.512-1.08-.769-1.35-1.536-2.969-3.585-4.048-5.89zm-4.42 23.541c0 .91-.174 1.56-.524 1.95-.341.382-.853.573-1.536.573h-.902v3.62H13.71v-8.679h1.95c.691 0 1.207.191 1.548.573.342.382.512 1.036.512 1.963zm-1.048 0c0-.577-.085-.988-.256-1.231-.17-.244-.435-.366-.792-.366h-.866v3.181h.866c.357 0 .621-.121.792-.365.17-.244.256-.65.256-1.22zm6.334-.768c.073.48.11 1.337.11 2.572s-.037 2.097-.11 2.584c-.073.48-.244.862-.512 1.146-.366.406-.862.61-1.488.61h-1.999v-8.68h2c.625 0 1.121.203 1.487.61.268.284.439.67.512 1.158zm-1 4.766c.04-.39.061-1.121.061-2.194s-.02-1.804-.06-2.194c-.042-.39-.139-.683-.293-.878-.18-.22-.427-.33-.744-.33h-.914v6.803h.914c.317 0 .565-.11.744-.33.154-.194.252-.487.292-.877zm5.818-5.595H25.52v2.913h1.987v.939H25.52v3.889h-1.05v-8.68h3.353v.939zm6.904 8.588a.404.404 0 00.571 0l2.57-2.57a.404.404 0 10-.571-.57l-2.284 2.283-2.285-2.284a.404.404 0 10-.57.571l2.57 2.57zm-.118-8.957v8.672h.807v-8.672h-.807z" fill="#fff"/></svg>