<svg width="51" height="51" fill="none" xmlns="http://www.w3.org/2000/svg"><path d="M0 3.075C0 1.625 0 .901.45.45.9 0 1.626 0 3.075 0h44.592c1.45 0 2.175 0 2.625.45.45.45.45 1.176.45 2.625v44.592c0 1.45 0 2.175-.45 2.625-.45.45-1.175.45-2.625.45H3.075c-1.45 0-2.174 0-2.625-.45C0 49.842 0 49.117 0 47.667V3.075z" fill="#DF0000"/><path d="M36.904 27.285v8.48H31.94v-7.963c0-1.965-.724-3.31-2.482-3.31-1.345 0-2.172.93-2.483 1.758-.103.31-.207.724-.207 1.241v8.275h-4.964s.103-13.446 0-14.79h4.965v2.068c.62-1.034 1.861-2.482 4.447-2.482 3.206 0 5.688 2.172 5.688 6.723zM16.633 13.839c-1.654 0-2.792 1.138-2.792 2.586s1.034 2.585 2.689 2.585c1.758 0 2.793-1.137 2.793-2.585.103-1.552-.931-2.586-2.69-2.586zM14.15 35.766h4.965v-14.79H14.15v14.79z" fill="#fff"/></svg>