<svg width="451" height="166" fill="none" xmlns="http://www.w3.org/2000/svg"><path d="M282.15 104.169h15.833V1.219h-13.722v61.615L268.427 1.219h-19.316v102.95h13.827v-74.58l19.212 74.58zm-59.534 0h15.411V1.219h-15.411v102.95zm-22.905 0h15.833l-21.428-57.071 21.428-45.879h-15.411L179.972 46.1V1.22h-15.411v102.95h15.411V72.475l4.75-9.42 14.989 41.114zm-91.833-24.712c0 16.512 8.233 25.931 23.433 25.931 15.094 0 23.433-9.42 23.433-25.931V25.932C154.744 9.42 146.511 0 131.311 0s-23.433 9.42-23.433 25.931v53.526zm15.411-54.634c0-7.314 3.061-10.195 8.022-10.195 4.855 0 8.022 2.77 8.022 10.195v55.631c0 7.314-3.061 10.195-8.022 10.195-4.856 0-8.022-2.77-8.022-10.195v-55.63zm-68.506 1.108c0 29.367 30.084 33.357 30.084 54.523 0 7.314-3.062 9.974-8.023 9.974-4.855 0-8.022-2.66-8.022-9.974V73.14H54.361v6.317c0 16.512 7.811 25.931 23.011 25.931 15.094 0 23.011-9.42 23.011-25.931C100.383 50.09 70.3 46.1 70.3 24.934c0-7.314 2.85-10.195 7.705-10.195 4.856 0 7.706 2.77 7.706 10.195v4.211h14.567v-3.213C100.172 9.42 92.466 0 77.478 0c-14.99 0-22.695 9.42-22.695 25.931zM0 79.458c0 16.4 8.233 25.82 23.433 25.82 15.095 0 23.434-9.42 23.434-25.931V25.93C46.76 9.42 38.527 0 23.433 0 8.233 0 0 9.42 0 25.931v53.526zm15.411-54.634c0-7.314 3.061-10.195 8.022-10.195 4.856 0 8.023 2.77 8.023 10.195v55.631c0 7.314-3.062 10.195-8.023 10.195-4.855 0-8.022-2.77-8.022-10.195v-55.63z" fill="#fff"/><path d="M307.06 25.931c0 29.367 30.083 33.357 30.083 54.523 0 7.314-3.061 9.974-8.022 9.974-4.855 0-8.022-2.66-8.022-9.974V73.14h-14.567v6.317c0 16.512 7.811 25.931 23.011 25.931 15.095 0 23.011-9.42 23.011-25.931 0-29.367-30.083-33.357-30.083-54.523 0-7.314 2.85-10.195 7.706-10.195 4.855 0 7.705 2.77 7.705 10.195v4.211h14.567v-3.213C352.449 9.42 344.743 0 329.754 0c-14.988 0-22.694 9.42-22.694 25.931z" fill="#DF0000"/><path d="M263.671 139.78c.947.971 1.421 2.784 1.421 5.441s-.474 4.471-1.421 5.441c-.924.948-2.23 1.421-3.916 1.421h-2.808V163h-2.044v-24.675h4.852c1.686 0 2.992.485 3.916 1.455zm-1.49 9.427c.577-.716.866-2.045.866-3.986 0-1.94-.289-3.269-.866-3.985-.578-.716-1.421-1.074-2.53-1.074h-2.704v10.085h2.704c1.109 0 1.952-.347 2.53-1.04zM280.103 163h-2.183l-3.57-11.055h-3.188V163h-2.045v-24.675h4.852c1.71 0 3.027.473 3.951 1.421.924.947 1.386 2.749 1.386 5.406 0 3.512-1.016 5.649-3.05 6.411L280.103 163zm-3.569-14.105c.485-.809.727-2.056.727-3.743 0-1.687-.242-2.934-.727-3.743-.462-.832-1.294-1.247-2.496-1.247h-2.876v9.946h2.876c1.202 0 2.034-.404 2.496-1.213zm17.05-6.169c.208 1.34.312 3.986.312 7.936 0 3.951-.104 6.608-.312 7.971-.208 1.34-.681 2.403-1.421 3.189-.901.97-2.137 1.455-3.708 1.455-1.548 0-2.772-.485-3.673-1.455-.74-.786-1.213-1.849-1.421-3.189-.208-1.363-.312-4.02-.312-7.971 0-3.95.104-6.596.312-7.936.208-1.363.681-2.437 1.421-3.223.901-.97 2.125-1.455 3.673-1.455 1.571 0 2.807.485 3.708 1.455.74.786 1.213 1.86 1.421 3.223zm-1.941 15.18c.139-1.202.208-3.616.208-7.244 0-3.627-.069-6.03-.208-7.208-.138-1.202-.462-2.091-.97-2.669-.531-.6-1.271-.901-2.218-.901-.924 0-1.652.301-2.183.901-.509.578-.832 1.467-.971 2.669-.138 1.178-.208 3.581-.208 7.208 0 3.628.07 6.042.208 7.244.139 1.178.462 2.056.971 2.633.531.601 1.259.901 2.183.901.947 0 1.687-.3 2.218-.901.508-.577.832-1.455.97-2.633zm12.633-.208c0 1.802-.485 3.188-1.456 4.158-.947.948-2.195 1.421-3.743 1.421-1.64 0-2.945-.577-3.916-1.733l1.491-1.351c.6.832 1.409 1.247 2.425 1.247.925 0 1.676-.323 2.253-.97.601-.67.901-1.594.901-2.772v-19.373h2.045v19.373zM317.377 163h-8.595v-24.675h8.595v1.837h-6.55v9.565h5.649v1.836h-5.649v9.6h6.55V163zm14.045-5.649c-.046 2.149-.624 3.731-1.733 4.748-.855.785-1.987 1.178-3.396 1.178-1.548 0-2.773-.485-3.674-1.455-.739-.786-1.213-1.849-1.421-3.189-.208-1.363-.312-4.02-.312-7.971 0-3.95.104-6.596.312-7.936.208-1.363.682-2.437 1.421-3.223.901-.97 2.126-1.455 3.674-1.455 1.478 0 2.657.439 3.535 1.316 1.016 1.017 1.548 2.553 1.594 4.61h-2.045c0-1.502-.323-2.588-.97-3.258-.509-.554-1.213-.832-2.114-.832-.925 0-1.652.301-2.184.901-.508.578-.831 1.467-.97 2.669-.139 1.178-.208 3.581-.208 7.208 0 3.628.069 6.042.208 7.244.139 1.178.462 2.056.97 2.633.532.601 1.259.901 2.184.901.901 0 1.605-.277 2.114-.831.647-.67.97-1.756.97-3.258h2.045zm12.152-17.189h-4.124V163h-2.045v-22.838h-4.124v-1.837h10.293v1.837zm20.037 2.737c.207 1.317.311 3.905.311 7.763 0 3.859-.104 6.446-.311 7.763-.208 1.317-.682 2.369-1.421 3.154-.901.947-2.126 1.421-3.674 1.421h-5.06v-24.675h5.06c1.548 0 2.773.473 3.674 1.421.739.785 1.213 1.836 1.421 3.153zm-1.941 14.868c.138-1.155.208-3.523.208-7.105 0-3.581-.07-5.937-.208-7.069-.139-1.156-.474-2.011-1.005-2.565-.509-.578-1.259-.866-2.253-.866h-2.911v21.001h2.911c.994 0 1.744-.289 2.253-.866.531-.555.866-1.398 1.005-2.53zM376.739 163h-8.594v-24.675h8.594v1.837h-6.55v9.565h5.649v1.836h-5.649v9.6h6.55V163zm12.624 0h-8.595v-24.675h2.045v22.838h6.55V163zm5.194 0h-2.045v-24.675h2.045V163zm15.085-24.675L404.374 163h-2.01l-5.268-24.675h2.253l4.02 21.001 4.02-21.001h2.253zM420.77 163h-8.594v-24.675h8.594v1.837h-6.55v9.565h5.649v1.836h-5.649v9.6h6.55V163zm15.015 0h-2.183l-3.57-11.055h-3.188V163h-2.045v-24.675h4.852c1.71 0 3.027.473 3.951 1.421.924.947 1.386 2.749 1.386 5.406 0 3.512-1.016 5.649-3.049 6.411L435.785 163zm-3.569-14.105c.485-.809.728-2.056.728-3.743 0-1.687-.243-2.934-.728-3.743-.462-.832-1.294-1.247-2.495-1.247h-2.877v9.946h2.877c1.201 0 2.033-.404 2.495-1.213zm15.795-10.57l-4.332 14.347V163h-2.045v-10.328l-4.332-14.347h2.252l3.085 11.298 3.119-11.298h2.253z" fill="#fff"/></svg>