<svg width="110" height="57" fill="none" xmlns="http://www.w3.org/2000/svg"><path d="M88.399 31.757h4.857V.372h-4.21v18.783L84.188.372h-5.926v31.385h4.242V9.02L88.4 31.757zm-18.266 0h4.729V.372h-4.729v31.385zm-7.027 0h4.857L61.39 14.358 67.963.372h-4.728L57.05 14.054V.372h-4.728v31.385h4.728v-9.662l1.457-2.872 4.599 12.534zM34.93 24.223c0 5.034 2.526 7.905 7.19 7.905 4.63 0 7.189-2.871 7.189-7.905V7.905C49.31 2.872 46.784 0 42.12 0c-4.663 0-7.19 2.872-7.19 7.905v16.318zm4.728-16.655c0-2.23.94-3.109 2.461-3.109 1.49 0 2.461.845 2.461 3.109v16.959c0 2.23-.939 3.108-2.46 3.108-1.49 0-2.462-.845-2.462-3.108V7.567zm-21.018.337c0 8.953 9.23 10.17 9.23 16.622 0 2.23-.94 3.04-2.462 3.04-1.49 0-2.46-.81-2.46-3.04v-2.23H18.51v1.926c0 5.034 2.397 7.905 7.06 7.905 4.631 0 7.06-2.871 7.06-7.905 0-8.953-9.23-10.169-9.23-16.622 0-2.23.875-3.108 2.365-3.108 1.49 0 2.364.845 2.364 3.108v1.284h4.469v-.98C32.567 2.872 30.202 0 25.604 0c-4.599 0-6.963 2.872-6.963 7.905zM1.833 24.223c0 5 2.526 7.871 7.19 7.871 4.63 0 7.189-2.871 7.189-7.905V7.905C16.18 2.872 13.654 0 9.022 0 4.36 0 1.834 2.872 1.834 7.905v16.318zM6.561 7.568c0-2.23.94-3.109 2.462-3.109 1.49 0 2.46.845 2.46 3.109v16.959c0 2.23-.938 3.108-2.46 3.108-1.49 0-2.462-.845-2.462-3.108V7.567z" fill="#353535"/><path d="M96.042 7.905c0 8.953 9.23 10.17 9.23 16.622 0 2.23-.94 3.04-2.462 3.04-1.489 0-2.461-.81-2.461-3.04v-2.23h-4.47v1.926c0 5.034 2.397 7.905 7.061 7.905 4.631 0 7.06-2.871 7.06-7.905 0-8.953-9.23-10.169-9.23-16.622 0-2.23.874-3.108 2.364-3.108 1.49 0 2.364.845 2.364 3.108v1.284h4.469v-.98c0-5.033-2.364-7.905-6.962-7.905-4.6 0-6.963 2.872-6.963 7.905z" fill="#DF0000"/><path d="M7.495 42.27c.52.532.779 1.526.779 2.983s-.26 2.451-.78 2.983c-.506.52-1.221.779-2.146.779h-1.54V55h-1.12V41.472h2.66c.925 0 1.64.266 2.147.798zm-.817 5.168c.317-.393.475-1.121.475-2.185s-.158-1.792-.475-2.185c-.317-.393-.78-.589-1.387-.589H3.809v5.529H5.29c.608 0 1.07-.19 1.387-.57zM16.504 55h-1.197l-1.957-6.061h-1.748V55H10.48V41.472h2.66c.937 0 1.66.26 2.166.779.506.52.76 1.507.76 2.964 0 1.925-.558 3.097-1.672 3.515l2.11 6.27zm-1.957-7.733c.266-.443.399-1.127.399-2.052s-.133-1.609-.4-2.052c-.252-.456-.708-.684-1.367-.684h-1.577v5.453h1.577c.659 0 1.114-.222 1.368-.665zm9.348-3.382c.114.735.17 2.185.17 4.351s-.056 3.623-.17 4.37c-.114.735-.374 1.317-.78 1.748-.493.532-1.171.798-2.032.798-.849 0-1.52-.266-2.014-.798-.406-.43-.665-1.013-.78-1.748-.113-.747-.17-2.204-.17-4.37s.057-3.616.17-4.351c.115-.747.374-1.336.78-1.767.494-.532 1.165-.798 2.014-.798.861 0 1.539.266 2.033.798.405.43.665 1.02.779 1.767zm-1.064 8.322c.076-.659.114-1.982.114-3.971s-.038-3.306-.114-3.952c-.076-.659-.254-1.146-.532-1.463-.292-.33-.697-.494-1.216-.494-.507 0-.906.165-1.197.494-.279.317-.456.804-.532 1.463-.076.646-.114 1.963-.114 3.952 0 1.989.038 3.312.114 3.971.076.646.253 1.127.532 1.444.291.33.69.494 1.197.494.519 0 .924-.165 1.216-.494.278-.317.456-.798.532-1.444zm6.925-.114c0 .988-.266 1.748-.798 2.28-.519.52-1.203.779-2.052.779-.899 0-1.615-.317-2.147-.95l.817-.741c.33.456.773.684 1.33.684.507 0 .919-.177 1.235-.532.33-.367.494-.874.494-1.52V41.472h1.121v10.621zM36.94 55h-4.712V41.472h4.712v1.007h-3.591v5.244h3.097v1.007h-3.097v5.263h3.591V55zm7.7-3.097c-.026 1.178-.342 2.046-.95 2.603-.469.43-1.09.646-1.862.646-.849 0-1.52-.266-2.014-.798-.406-.43-.665-1.013-.78-1.748-.113-.747-.17-2.204-.17-4.37s.057-3.616.17-4.351c.115-.747.374-1.336.78-1.767.494-.532 1.165-.798 2.014-.798.81 0 1.456.24 1.938.722.557.557.849 1.4.874 2.527h-1.121c0-.823-.178-1.419-.532-1.786-.279-.304-.665-.456-1.16-.456-.506 0-.905.165-1.196.494-.279.317-.456.804-.532 1.463-.076.646-.114 1.963-.114 3.952 0 1.989.038 3.312.114 3.971.076.646.253 1.127.532 1.444.291.33.69.494 1.197.494.494 0 .88-.152 1.159-.456.355-.367.532-.963.532-1.786h1.12zm6.662-9.424h-2.26V55H47.92V42.479h-2.26v-1.007h5.64v1.007zm10.985 1.501c.114.722.171 2.14.171 4.256 0 2.115-.057 3.534-.17 4.256-.115.722-.374 1.298-.78 1.729-.494.52-1.165.779-2.014.779H56.72V41.472h2.774c.849 0 1.52.26 2.014.779.406.43.665 1.007.78 1.729zm-1.064 8.151c.076-.633.114-1.932.114-3.895s-.038-3.255-.114-3.876c-.076-.633-.26-1.102-.55-1.406-.28-.317-.691-.475-1.236-.475H57.84v11.514h1.596c.545 0 .956-.158 1.235-.475.291-.304.475-.766.551-1.387zM69.484 55h-4.712V41.472h4.712v1.007h-3.591v5.244h3.097v1.007h-3.097v5.263h3.59V55zm6.92 0h-4.711V41.472h1.12v12.521h3.592V55zm2.848 0h-1.12V41.472h1.12V55zm8.27-13.528L84.634 55h-1.102l-2.888-13.528h1.235l2.204 11.514 2.204-11.514h1.235zM93.624 55h-4.712V41.472h4.712v1.007h-3.591v5.244h3.096v1.007h-3.097v5.263h3.592V55zm8.231 0h-1.197l-1.957-6.061h-1.748V55h-1.12V41.472h2.66c.937 0 1.659.26 2.165.779.507.52.76 1.507.76 2.964 0 1.925-.557 3.097-1.672 3.515l2.109 6.27zm-1.957-7.733c.266-.443.399-1.127.399-2.052s-.133-1.609-.399-2.052c-.253-.456-.709-.684-1.368-.684h-1.577v5.453h1.577c.66 0 1.115-.222 1.368-.665zm8.66-5.795l-2.375 7.866V55h-1.121v-5.662l-2.375-7.866h1.235l1.691 6.194 1.71-6.194h1.235z" fill="#353535"/></svg>