<svg width="52" height="51" fill="none" xmlns="http://www.w3.org/2000/svg"><path d="M.419 3.075c0-1.45 0-2.174.45-2.625C1.32 0 2.045 0 3.494 0h44.592c1.45 0 2.174 0 2.625.45.45.45.45 1.176.45 2.625v44.592c0 1.45 0 2.175-.45 2.625-.45.45-1.175.45-2.625.45H3.494c-1.45 0-2.174 0-2.625-.45-.45-.45-.45-1.175-.45-2.625V3.075z" fill="#DF0000"/><path d="M39.957 22.932c0-.597-.1-1.293-.1-2.088-.099-.795-.198-1.59-.297-2.286-.2-.795-.498-1.392-1.094-1.889-.497-.497-1.193-.795-1.889-.894-2.286-.299-5.665-.398-10.238-.398-4.573 0-8.052.1-10.239.398-.695.099-1.391.397-1.888.894-.497.497-.895 1.094-1.094 1.889-.199.696-.298 1.392-.298 2.286-.1.795-.1 1.491-.1 2.088v4.572c0 .596.1 1.292.1 2.088.1.795.199 1.59.298 2.286.2.795.497 1.392 1.094 1.889.497.496 1.193.795 1.888.894 2.287.298 5.666.398 10.239.398s8.052-.1 10.239-.398c.695-.1 1.391-.398 1.888-.895.497-.496.895-1.093 1.093-1.888.2-.696.299-1.392.299-2.286.1-.796.1-1.491.1-2.088v-4.572zm-8.35 3.081l-7.852 4.87a.76.76 0 01-.498.2c-.198 0-.298 0-.497-.1-.298-.199-.497-.497-.497-.894v-9.841c0-.398.2-.696.497-.895a.903.903 0 01.994 0l7.853 4.87c.299.2.497.498.497.796 0 .298-.198.795-.497.994z" fill="#fff"/></svg>