<svg width="51" height="51" viewBox="0 0 51 51" fill="none" xmlns="http://www.w3.org/2000/svg">
<path d="M0 3.07626C0 1.62656 0 0.901706 0.450365 0.451341C0.90073 0.000976562 1.62558 0.000976562 3.07528 0.000976562H47.6669C49.1166 0.000976562 49.8415 0.000976562 50.2918 0.451341C50.7422 0.901706 50.7422 1.62656 50.7422 3.07626V47.6679C50.7422 49.1176 50.7422 49.8424 50.2918 50.2928C49.8415 50.7432 49.1166 50.7432 47.6669 50.7432H3.07528C1.62558 50.7432 0.90073 50.7432 0.450365 50.2928C0 49.8424 0 49.1176 0 47.6679V3.07626Z" fill="#DF0000"/>
<path d="M38.4407 16.6358C38.4407 14.3334 36.4091 12.3018 34.1066 12.3018H16.6349C14.3324 12.3018 12.3008 14.3334 12.3008 16.6358V34.1076C12.3008 36.4101 14.3324 38.4417 16.6349 38.4417H25.4385V28.5546H22.1879V24.2205H25.4385V22.4598C25.4385 19.4801 27.6055 16.9067 30.3143 16.9067H33.8357V21.2408H30.3143C29.908 21.2408 29.5016 21.6471 29.5016 22.4598V24.2205H33.8357V28.5546H29.5016V38.4417H34.1066C36.4091 38.4417 38.4407 36.4101 38.4407 34.1076V16.6358Z" fill="white"/>
</svg>
