<svg width="80" height="75" viewBox="0 0 80 75" fill="none" xmlns="http://www.w3.org/2000/svg">
<g clip-path="url(#clip0)">
<path d="M27.2617 24.5211C27.6029 24.8624 27.7313 25.2185 27.7963 25.6831C28.0068 27.1908 28.1799 28.7363 29.3229 29.9027C29.9744 30.5672 30.1369 31.3331 30.0162 32.2042C29.9038 33.0167 30.0906 33.7563 30.5707 34.4192C30.9917 35.0005 31.1091 35.6568 31.1703 36.3569C31.307 37.9298 31.3841 39.5219 31.8575 41.0383C32.0857 41.7697 31.9876 42.4239 31.7699 43.1016C31.685 43.3662 31.5914 43.6324 31.4596 43.8762C31.2689 44.2301 31.4023 44.3879 31.7479 44.475C32.472 44.6586 33.1918 44.6273 33.9171 44.4756C34.6451 44.3227 34.6677 44.2811 34.4087 43.6209C34.1249 42.8972 33.7501 42.1768 33.8912 41.3709C34.0819 40.2801 34.1094 39.1943 34.0213 38.0925C33.9061 36.6544 33.4575 35.2399 33.7418 33.7711C33.8438 33.2424 33.8653 32.6841 33.7352 32.1587C33.4541 31.0236 33.5236 29.8649 33.4012 28.7171C33.4012 28.0093 33.4178 27.3015 33.3941 26.5942C33.3831 26.271 33.4459 26.0858 33.8113 26.1482C34.315 26.2343 34.7983 26.2271 35.2822 26.0047C35.4542 25.9253 35.7622 26.0694 35.7336 26.2693C35.6052 27.1689 35.932 28.017 35.975 28.8935C36.0235 29.8764 36.3591 30.8488 36.1767 31.8344C36.0218 32.6704 36.0802 33.461 36.3944 34.2384C36.6622 34.9013 36.8204 35.5719 36.7835 36.2989C36.7432 37.0954 36.7565 37.897 36.789 38.6946C36.8254 39.5865 36.8816 40.4943 37.3142 41.2958C37.5854 41.7971 37.6135 42.2612 37.4718 42.7871C37.3699 43.1657 37.2536 43.5382 37.0761 43.8839C36.8959 44.2351 37.0094 44.3923 37.3655 44.48C38.2462 44.6964 39.1092 44.6169 39.9662 44.3627C40.2804 44.2696 40.3074 44.097 40.1734 43.8127C39.921 43.2758 39.7121 42.7186 39.4713 42.1757C39.3038 41.7982 39.2239 41.4646 39.6124 41.1463C39.7546 41.0301 39.8202 40.7978 39.8758 40.6055C40.1569 39.6298 40.0064 38.6513 39.8692 37.6745C39.6769 36.3043 39.2994 34.9583 39.8025 33.5519C40.1409 32.6052 39.8637 31.6602 39.4421 30.748C38.9081 29.5915 38.622 28.3917 39.2172 27.1492C39.7077 26.1252 39.8813 25.0257 39.7215 23.924C39.4454 22.0147 39.7601 20.2353 40.6265 18.5276C40.8326 18.1211 40.8502 17.6806 40.7703 17.2237C40.6204 16.3663 39.9342 15.8798 39.4443 15.2602C38.2991 13.8117 38.9819 11.2335 40.719 10.6161C42.2027 10.089 44.4645 10.2561 45.8274 11.812C45.9442 11.9452 46.0374 12.064 46.0159 12.2498C45.8291 13.8933 45.6858 15.5511 44.7075 16.975C44.4546 17.3432 44.481 17.6549 44.7654 17.9814C45.58 18.9166 46.6513 19.2552 47.8473 19.3286C48.4574 19.3658 48.8784 19.1171 49.1755 18.5901C49.4218 18.154 49.5745 17.6724 49.8864 17.267C50.9556 15.8765 51.8639 14.3798 52.739 12.8645C53.089 12.2591 53.3376 11.6077 53.5409 10.9398C53.9344 9.64691 53.8248 8.32933 53.7757 7.00681C53.747 6.24036 53.579 5.53254 53.1943 4.88607C52.9678 4.50476 52.8686 4.17222 53.0648 3.7427C53.1843 3.48028 53.1992 3.16526 53.2306 2.87107C53.2543 2.65193 53.1447 2.48428 52.8983 2.56317C52.2662 2.76424 52.3874 2.40046 52.4745 2.03778C52.6007 1.51294 52.7203 0.986452 52.7423 0.445173C52.7484 0.303279 52.8013 0.119201 52.6608 0.0309965C52.4977 -0.071452 52.3946 0.114818 52.286 0.193709C51.7095 0.613364 51.2009 1.10917 50.728 1.63895C50.5064 1.88712 50.297 1.95725 50.0093 1.75399C49.8749 1.65922 49.7123 1.60333 49.5602 1.53431C46.7671 0.26493 43.8731 -0.0457029 40.8552 0.549813C38.4727 1.01987 36.1888 1.69757 34.2566 3.23155C33.7369 3.64409 33.1494 3.88021 32.5608 4.15743C32.0218 4.41108 31.4508 4.5968 30.9295 4.88278C28.7068 6.10285 26.9107 7.78695 25.5086 9.88358C23.5753 12.7746 22.92 15.9045 23.8613 19.2869C24.4422 21.3732 25.7577 23.0184 27.2617 24.5211ZM47.1832 7.96062C47.3617 7.92556 47.9454 8.44657 48.0077 8.67612C48.011 8.67502 48.0143 8.67447 48.0176 8.67338C48.1796 8.4504 48.3284 8.61311 48.4612 8.71337C48.4987 8.74186 48.4359 8.91279 48.4017 8.88594C48.2242 8.74679 48.1592 9.12919 47.9867 8.95607C47.8704 8.83938 47.8368 8.75172 48.0082 8.67776C48.0082 8.67721 48.0077 8.67666 48.0077 8.67612C47.6505 8.78678 46.9919 8.46793 46.9616 8.16004C46.9478 8.01048 47.0845 7.9798 47.1832 7.96062ZM38.7648 41.7089C38.3823 41.87 38.1872 41.819 38.0329 41.5374C38.2847 41.4777 38.4672 41.5478 38.7648 41.7089Z" fill="white"/>
<path d="M53.7694 33.5791C53.0976 32.8247 52.1761 32.3497 51.3764 31.7361C50.752 31.2573 50.1772 30.7029 49.8536 30.0032C49.4827 29.2012 49.2188 28.3383 49.1047 27.4502C49.0611 27.1122 48.9173 27.0016 48.5855 26.9791C47.373 26.8964 46.1529 27.0114 44.9459 26.8257C44.6896 26.7862 44.7122 26.9364 44.6709 27.1122C44.3281 28.5794 44.0724 30.0624 43.8304 31.5476C43.6651 32.5628 43.6028 33.5818 43.8657 34.5964C44.2102 35.9255 44.0542 37.2426 43.7896 38.5645C43.4871 40.0766 43.0638 41.5531 42.581 43.0159C42.4565 43.3928 42.3689 43.8859 42.6069 44.1291C42.8031 44.3291 43.276 44.0918 43.6149 43.985C43.837 43.9149 43.9974 43.7812 44.1076 43.5648C44.295 43.1978 44.564 42.8899 44.8638 42.6022C45.27 42.2122 45.5896 41.7509 45.8663 41.2627C45.9357 41.14 46.0702 41.0113 45.9776 40.854C45.6227 40.2525 45.6899 39.6712 45.9952 39.0691C46.154 38.7558 46.047 38.5635 45.6447 38.5169C45.1195 38.4561 44.5364 37.8852 44.7188 37.6047C45.0186 37.144 45.0302 36.463 45.6447 36.2323C46.0239 36.0899 46.2344 35.868 46.2394 35.4571C46.2443 35.0829 46.4113 35.0172 46.6604 35.2911C47.3538 36.0543 47.971 36.8651 48.1386 37.9214C48.1766 38.1597 48.1678 38.4528 48.3992 38.5678C48.8484 38.7919 49.1576 39.1935 49.6437 39.3869C50.5657 39.7534 51.0551 40.4968 51.1857 41.4786C51.2281 41.7969 51.3141 42.1097 51.3803 42.4247C51.4205 42.416 51.4613 42.4066 51.5015 42.3979C51.5015 42.1196 51.5313 41.8374 51.4954 41.564C51.4122 40.9269 51.0628 40.3845 50.8258 39.8016C50.7068 39.5085 50.5315 39.1623 50.8165 38.8889C50.9564 38.7547 51.6415 39.2899 51.7352 39.5896C51.7572 39.6597 51.7517 39.7381 51.7694 39.8104C51.8355 40.081 51.873 40.3648 51.981 40.6185C52.5426 41.9371 52.4687 43.1446 51.2915 44.2348C52.3618 44.2348 53.3257 44.2031 54.2863 44.2452C55.0375 44.2781 55.5291 43.962 55.8873 43.3424C56.0846 43.0016 56.2649 42.651 56.3382 42.2691C56.9802 38.9376 55.986 36.068 53.7694 33.5791Z" fill="white"/>
<path d="M79.7286 67.4276C79.2882 67.112 79.0854 66.6732 79.0149 66.1533C78.9647 65.7851 78.8942 65.4202 78.8391 65.0526C78.6236 63.6096 78.5089 62.1134 76.7966 61.4587C77.0396 61.3152 77.2127 61.2204 77.378 61.1141C79.6569 59.6497 79.7506 56.8705 77.604 55.2373C75.4596 53.6058 71.9511 53.8255 69.9582 55.1869C69.6182 55.4192 69.3289 55.7079 69.1453 56.0925C69.0301 56.3336 69.0384 56.5302 69.2776 56.6656C69.7687 56.9428 69.8618 57.3805 69.8596 57.8977C69.8486 60.5115 69.848 63.1253 69.8596 65.7391C69.8623 66.4206 69.8194 67.0682 69.3735 67.6385C69.1486 67.9261 69.2804 68.1491 69.632 68.1688C70.0977 68.1951 70.5672 68.1874 71.0335 68.1672C72.3066 68.1113 72.8952 67.558 73.0109 66.2919C73.1211 65.085 73.0655 63.8737 73.0633 62.6645C73.0627 62.2783 73.1812 62.137 73.5946 62.1928C74.6263 62.332 75.2413 62.8366 75.4629 63.8989C75.6558 64.8253 75.739 65.7747 75.9341 66.7006C76.0686 67.3366 76.3099 67.9826 77.0584 68.1387C77.847 68.303 78.6566 68.3195 79.4629 68.2784C79.6724 68.268 79.8878 68.2165 79.9711 67.9962C80.0659 67.7453 79.9187 67.564 79.7286 67.4276ZM75.9418 59.4667C75.5213 60.3444 74.5452 60.8281 73.4628 60.7268C73.141 60.6967 73.0528 60.5493 73.0594 60.26C73.0704 59.7774 73.0622 59.2936 73.0622 58.811C73.0627 58.811 73.0638 58.811 73.0644 58.811C73.0644 58.365 73.0688 57.919 73.0627 57.4731C73.0578 57.1137 73.0142 56.7609 72.6929 56.5248C72.4146 56.3199 72.5871 56.2525 72.7844 56.1637C73.7169 55.7446 74.9586 55.9282 75.6051 56.5872C76.2256 57.22 76.381 58.5507 75.9418 59.4667Z" fill="white"/>
<path d="M66.8942 63.7252C66.9036 61.2428 66.9025 58.7605 66.897 56.2782C66.8959 55.8141 66.9504 55.3885 67.3505 55.0773C67.5302 54.9376 67.6013 54.7486 67.49 54.5333C67.3753 54.3114 67.167 54.3114 66.9548 54.3432C65.8361 54.5097 64.7167 54.4982 63.5968 54.3486C63.3555 54.3163 63.1411 54.3552 63.0303 54.5979C62.9261 54.8264 63.0452 55.0006 63.2215 55.126C63.5825 55.3824 63.6701 55.738 63.6624 56.1522C63.6503 56.7855 63.6591 57.4188 63.6591 58.0521C63.6591 58.6668 63.6591 59.2815 63.6591 59.8962C63.6591 60.5295 63.6768 61.1634 63.6542 61.7962C63.6343 62.361 63.7429 62.9193 63.6718 63.4896C63.6095 63.9854 63.6828 64.496 63.6448 64.9962C63.5704 65.9719 62.9482 66.6496 62.1121 66.7164C61.2766 66.7838 60.5276 66.2568 60.3248 65.4191C60.2515 65.1156 60.2438 64.7913 60.2411 64.4763C60.2317 63.4194 60.2378 62.3626 60.2378 61.3053C60.2378 59.6475 60.2411 57.9897 60.235 56.3313C60.2333 55.8525 60.2697 55.4016 60.6996 55.08C60.8837 54.9425 60.9322 54.7327 60.8324 54.5283C60.7382 54.3344 60.537 54.3075 60.3452 54.3355C59.189 54.5042 58.0338 54.5009 56.877 54.3355C56.6803 54.3075 56.4945 54.3689 56.397 54.5535C56.3011 54.7349 56.3176 54.9239 56.4934 55.0548C56.9575 55.3994 57.001 55.8936 57.001 56.4069C57.0016 57.6922 57.001 58.9774 57.001 60.2627C57.0076 60.2627 57.0142 60.2627 57.0209 60.2627C57.0209 61.6033 56.9845 62.945 57.0313 64.284C57.0776 65.6098 57.6513 66.6781 58.828 67.376C60.1766 68.1759 61.6293 68.4789 63.1686 68.1491C64.7134 67.8182 66.0113 67.1175 66.612 65.5325C66.8352 64.9496 66.892 64.3387 66.8942 63.7252Z" fill="white"/>
<path d="M32.1627 56.3971C32.1622 55.8783 32.2454 55.4 32.6422 55.0209C32.7634 54.9053 32.8869 54.7749 32.786 54.5848C32.6736 54.3733 32.4835 54.3279 32.2619 54.3596C31.4788 54.4719 30.6967 54.478 29.9141 54.352C29.6981 54.3175 29.4936 54.3646 29.3916 54.5826C29.3002 54.7787 29.3757 54.9595 29.5377 55.0768C29.8397 55.2948 29.9136 55.6022 29.9725 55.9429C30.0403 56.333 30.0425 56.7231 30.0271 57.1115C30.0172 57.3679 30.1423 57.3591 30.3649 57.3673C30.0227 57.5257 30.0276 57.7985 30.0348 58.0861C30.0458 58.5217 30.0348 58.9572 30.0359 59.3928C30.0365 59.5796 30.0607 59.7938 29.8408 59.8656C29.6297 59.934 29.4942 59.7582 29.3735 59.6212C28.9789 59.1736 28.5859 58.7233 28.2062 58.2625C27.229 57.0764 26.0855 56.0092 25.5779 54.4917C25.4401 54.0797 25.0868 53.9679 24.6602 54.1525C23.7393 54.5514 23.0317 55.1946 22.4728 56.0103C22.2998 56.2623 22.3009 56.5165 22.6051 56.6661C23.0636 56.8918 23.1617 57.2917 23.1623 57.7361C23.1656 60.5268 23.1667 63.3181 23.159 66.1089C23.1579 66.5981 23.0317 67.0523 22.7219 67.4599C22.3979 67.8872 22.5335 68.1299 23.0791 68.1727C24.3373 68.2702 25.154 67.5487 25.1904 66.2152C25.2411 64.3678 25.2323 62.5188 25.2521 60.6704C25.2544 60.4534 25.1888 60.1855 25.4401 60.0737C25.7201 59.9494 25.8226 60.2288 25.9587 60.3855C27.0604 61.6532 28.1511 62.9302 29.2566 64.1947C30.1775 65.2477 30.2927 66.3713 29.5636 67.5854C29.3415 67.9552 29.4473 68.1179 29.8496 68.1995C30.9574 68.4241 31.9351 67.73 32.0547 66.6146C32.1241 65.9665 32.1633 65.3178 32.1616 64.6647C32.155 61.9085 32.1655 59.1528 32.1627 56.3971ZM29.579 60.3789C29.9786 60.4682 30.2641 60.5668 30.5115 60.9114C30.0872 60.9202 29.859 60.7197 29.579 60.3789Z" fill="white"/>
<path d="M20.8969 65.2981C20.5888 65.1524 20.3899 65.4082 20.1788 65.5978C19.8878 65.8591 19.6051 66.2426 19.2634 66.3144C18.1909 66.5401 17.0876 66.51 15.9903 66.5149C15.4623 66.5171 15.1856 66.4612 15.4011 65.8525C15.4662 65.669 15.4221 65.446 15.4221 65.2411C15.4237 64.2167 15.4221 63.1922 15.4237 62.1677C15.4243 61.9885 15.3774 61.7973 15.6447 61.73C16.3821 61.5437 17.4574 61.9327 17.8387 62.5397C18.1507 63.036 18.5177 63.0727 18.8771 62.5912C19.3439 61.965 19.5786 61.2407 19.5968 60.4595C19.6073 60.0141 19.3868 59.7933 18.9228 59.9073C17.9291 60.1516 16.9162 60.099 15.9071 60.1226C15.5433 60.1313 15.4188 60.0031 15.4121 59.6383C15.3923 58.5135 15.535 57.3828 15.3019 56.2651C15.2666 56.0958 15.2782 55.9748 15.5058 55.9808C17.1868 56.0257 18.947 55.7036 20.3133 57.1159C20.6048 57.4173 20.9912 57.2688 20.9906 56.8847C20.989 55.9731 20.7944 55.1114 20.1303 54.4233C19.8928 54.1773 19.6073 54.0754 19.2656 54.1888C18.8137 54.3389 18.3452 54.3411 17.8768 54.3378C15.9522 54.3257 14.0277 54.3137 12.1032 54.3011C11.9147 54.3 11.708 54.2764 11.6138 54.4846C11.5212 54.689 11.5493 54.9163 11.7361 55.0407C12.2349 55.3732 12.2415 55.8712 12.2415 56.3774C12.2432 57.9607 12.2421 59.544 12.2421 61.1279C12.2443 61.1279 12.2465 61.1279 12.2487 61.1279C12.2487 62.7298 12.2514 64.3317 12.2476 65.9342C12.2465 66.4979 12.182 67.0502 11.8326 67.5246C11.7196 67.678 11.5967 67.8254 11.6882 68.0286C11.7935 68.2614 12.0112 68.1721 12.1831 68.1716C13.8883 68.1661 15.594 68.165 17.2986 68.136C17.971 68.1245 18.6445 68.1223 19.2838 68.325C19.7666 68.4779 20.0774 68.3113 20.3574 67.9645C20.8198 67.392 21.0237 66.7264 21.0595 66.0038C21.0727 65.7528 21.1973 65.44 20.8969 65.2981Z" fill="white"/>
<path d="M55.2394 67.6272C54.9406 67.1106 54.7026 66.5726 54.5185 66.0034C53.5992 63.1633 52.6733 60.3249 51.7309 57.4925C51.549 56.9452 51.6113 56.1842 50.7278 56.1048C50.8893 56.1048 51.0508 56.1048 51.306 56.1048C51.0811 55.6035 51.0144 55.1624 51.1842 54.6913C51.2657 54.4645 51.193 54.1933 50.891 54.2086C49.8008 54.264 48.7328 54.4338 47.8245 55.1033C47.5837 55.2808 47.4498 55.5487 47.652 55.8336C48.0444 56.3864 47.9469 56.9457 47.7534 57.5336C46.9686 59.9162 46.2053 62.3054 45.4167 64.6863C45.075 65.7185 44.8506 66.8169 43.9529 67.5752C43.8211 67.6864 43.82 67.8447 43.8713 67.9871C43.9413 68.1805 44.1199 68.1975 44.2935 68.1751C45.1521 68.0639 46.0097 68.0699 46.8689 68.1767C47.0579 68.2003 47.2596 68.1937 47.3439 67.9778C47.4194 67.7855 47.3594 67.6113 47.2017 67.476C46.8689 67.19 46.8578 66.8542 47.0022 66.4658C47.1439 66.0839 47.2425 65.6862 47.3654 65.2972C47.4294 65.0934 47.5186 64.9252 47.7848 64.9274C48.7212 64.9351 49.6576 64.9252 50.5939 64.9345C50.8557 64.9372 51.1059 65.1953 51.1076 65.3898C51.1153 66.2614 51.4223 67.0383 51.9161 67.7423C52.0775 67.9718 52.3272 68.1236 52.6154 68.1663C53.3771 68.2781 54.1443 68.3131 54.912 68.2786C55.3964 68.2561 55.4907 68.0617 55.2394 67.6272ZM46.8391 63.5808C46.8893 63.3348 46.3828 63.3983 46.5779 63.091C46.6258 63.0154 46.714 62.8965 46.8452 63.0181C47.0237 63.1836 47.0381 63.3605 46.8391 63.5808ZM49.9871 63.3266C49.4443 63.3249 48.9014 63.3255 48.3586 63.3277C48.1133 63.3288 48.029 63.2499 48.1161 62.9891C48.471 61.9251 48.8083 60.8552 49.1516 59.7874C49.193 59.7902 49.2343 59.7934 49.2751 59.7962C49.5991 60.8568 49.921 61.918 50.2484 62.9776C50.3244 63.2241 50.2368 63.3277 49.9871 63.3266ZM52.2539 63.5123C52.6838 63.7479 52.7659 64.1456 53.0602 64.3346C52.5929 64.316 52.4688 63.9588 52.2539 63.5123Z" fill="white"/>
<path d="M10.2421 65.8299C9.91857 65.3423 9.47437 65.6584 9.09795 65.8496C8.22387 66.2939 7.29577 66.5251 6.33186 66.3322C4.87855 66.0413 4.22987 64.9226 3.85291 63.6478C3.36241 61.9872 3.41311 60.296 3.86283 58.6327C4.09154 57.7868 4.47953 56.9952 5.14033 56.3767C6.4013 55.1955 8.18529 55.556 8.88301 57.1278C8.96568 57.314 9.03898 57.508 9.1459 57.68C9.30738 57.9397 9.54877 58.0761 9.86181 57.9857C10.1605 57.8997 10.2492 57.6608 10.247 57.377C10.2426 56.8182 10.2674 56.2572 10.2217 55.7017C10.1853 55.2623 10.1335 54.8169 9.91637 54.4088C9.74166 54.0806 9.48318 53.9727 9.17786 54.1474C8.57163 54.4942 7.97751 54.3994 7.33766 54.2521C5.26874 53.7743 3.49027 54.3353 2.02317 55.8534C0.568208 57.36 0.00385787 59.2025 0 60.4554C0.0159826 63.2237 0.468455 64.5649 1.57676 66.0863C3.56522 68.8157 7.3349 69.129 9.80724 66.9579C10.1396 66.6659 10.5645 66.3153 10.2421 65.8299Z" fill="white"/>
<path d="M44.0842 56.928C44.4104 56.2301 44.5967 55.4965 44.4292 54.713C44.3399 54.295 44.1034 54.1044 43.6703 54.1734C43.3787 54.22 43.0866 54.3027 42.7951 54.3011C40.0444 54.2841 37.2893 54.501 34.5442 54.1646C34.1639 54.1181 33.9457 54.2638 33.847 54.6369C33.6238 55.4817 33.8233 56.2613 34.2174 57.0003C34.4185 57.3773 34.7547 57.3762 34.9994 56.9872C35.4723 56.2355 36.1937 56.0416 37.011 55.978C37.4503 55.9441 37.5831 56.0734 37.5798 56.527C37.5594 59.7303 37.5682 62.9341 37.5693 66.138C37.5693 66.6606 37.5103 67.1449 37.1323 67.5734C36.822 67.9251 36.9647 68.1919 37.4503 68.2154C37.8416 68.2346 38.2362 68.1946 38.6297 68.1765C40.0229 68.113 40.6198 67.5377 40.719 66.1583C40.7377 65.8986 40.7421 65.6372 40.7427 65.3765C40.7443 63.2283 40.7438 61.0802 40.7438 58.9321H40.7476C40.7476 58.0938 40.7559 57.2551 40.7432 56.4169C40.7383 56.0816 40.8562 55.9452 41.2045 55.9813C42.0042 56.0641 42.7554 56.2054 43.2277 56.9702C43.484 57.3849 43.8791 57.3674 44.0842 56.928Z" fill="white"/>
<path d="M49.748 23.9966C49.9497 23.9281 49.9629 24.1248 50.1062 24.1341C50.4975 24.1582 50.9169 24.4573 51.2597 24.0864C51.4399 23.8914 50.9897 23.1764 50.4986 23.0488C49.5545 22.8034 49.015 22.1591 48.5002 21.4107C47.9783 20.6519 47.2585 20.1052 46.3051 20.0071C45.7606 19.9512 45.296 19.7546 44.8595 19.4598C44.5349 19.2412 44.2213 19.0056 43.9105 18.7679C43.5682 18.5054 43.3015 18.5646 43.0706 18.9196C42.628 19.599 42.6616 20.5133 43.1394 21.1636C43.679 21.8967 44.3012 22.605 44.4715 23.5227C44.6198 24.3231 45.1384 24.6918 45.8223 24.9011C46.552 25.1246 47.3065 25.2649 48.04 25.478C48.9318 25.7366 48.9273 25.753 48.9251 24.7904C48.9251 24.494 48.8105 24.1133 48.9533 23.9215C49.1428 23.6679 49.484 24.0864 49.748 23.9966Z" fill="white"/>
<path d="M17.9465 73.1269C17.6803 73.1001 17.4846 73.1406 17.413 73.4639C17.3469 73.7646 17.2047 74.0484 17.0696 74.4111C16.9308 74.0112 16.8068 73.6934 16.712 73.3669C16.6321 73.0919 16.4292 73.1264 16.2237 73.1248C15.9641 73.122 15.9839 73.2984 15.9839 73.4688C15.9845 73.8594 15.9784 74.25 15.9872 74.6401C15.99 74.7705 15.9183 74.9617 16.1625 74.971C16.3995 74.9803 16.3664 74.8012 16.3692 74.6598C16.3747 74.3366 16.3708 74.0128 16.3708 73.6348C16.6144 73.9734 16.6541 74.3311 16.7891 74.65C16.8475 74.788 16.8486 74.9984 17.0978 74.9759C17.3017 74.9578 17.2967 74.7924 17.3573 74.662C17.5001 74.3541 17.5238 73.9947 17.7806 73.6567C17.7806 74.061 17.7795 74.3947 17.7811 74.7283C17.7817 74.8406 17.7845 74.9551 17.9404 74.9699C18.1289 74.9874 18.1554 74.8647 18.1559 74.7239C18.1581 74.3333 18.1653 73.9427 18.1543 73.5526C18.1504 73.3888 18.2441 73.1571 17.9465 73.1269Z" fill="white"/>
<path d="M13.8346 73.3727C13.8346 73.2598 13.8451 73.1448 13.6853 73.1305C13.4946 73.113 13.4742 73.2406 13.4731 73.3798C13.4709 73.6746 13.4725 73.9693 13.4725 74.264C13.4417 74.2723 13.4103 74.2805 13.3794 74.2881C13.1981 73.9671 12.9969 73.6548 12.8415 73.3212C12.7324 73.0867 12.5274 73.1908 12.3719 73.1459C12.2716 73.1168 12.2551 73.2587 12.2551 73.3524C12.2551 73.8175 12.254 74.2827 12.2568 74.7478C12.2573 74.8607 12.2672 74.9708 12.4293 74.9735C12.588 74.9763 12.61 74.8749 12.6111 74.7566C12.6133 74.4317 12.6117 74.1068 12.6117 73.6143C12.8801 74.0969 13.0818 74.4224 13.2449 74.7659C13.3518 74.9911 13.5254 74.9982 13.7101 74.9637C13.9333 74.922 13.8319 74.7248 13.8352 74.5982C13.8473 74.1906 13.8357 73.7814 13.8346 73.3727Z" fill="white"/>
<path d="M44.8357 73.1262C44.6521 73.1405 44.6852 73.2928 44.6577 73.4177C44.6213 73.5799 44.8153 73.8538 44.4405 73.8691C44.1357 73.8817 43.8761 73.8839 43.9511 73.4544C43.9759 73.3125 43.9754 73.1306 43.7571 73.1273C43.4937 73.1235 43.546 73.3339 43.5438 73.4911C43.5389 73.862 43.5361 74.2334 43.5449 74.6038C43.5488 74.7533 43.4733 74.973 43.745 74.9741C44.0117 74.9752 43.9709 74.7572 43.95 74.6082C43.8866 74.1518 44.1385 74.1282 44.478 74.1934C44.8131 74.2575 44.6207 74.515 44.656 74.6832C44.6869 74.8295 44.6566 74.9933 44.8847 74.9774C45.0699 74.9643 45.0705 74.8284 45.0716 74.6964C45.0738 74.4926 45.0721 74.2882 45.0727 74.0844C45.0732 73.862 45.0705 73.639 45.0738 73.4166C45.0776 73.249 45.0424 73.1104 44.8357 73.1262Z" fill="white"/>
<path d="M63.3541 73.1294C63.229 73.142 63.2103 73.2291 63.2092 73.3239C63.2058 73.6548 63.208 73.9857 63.208 74.4497C62.9463 73.9846 62.7479 73.6531 62.572 73.3096C62.4734 73.1168 62.3169 73.1135 62.1477 73.1305C61.9151 73.154 61.9818 73.342 61.9807 73.4751C61.9768 73.9013 61.9818 74.3275 61.9934 74.7532C61.9961 74.8628 62.0292 74.9784 62.1846 74.9707C62.3362 74.9636 62.3571 74.8535 62.3588 74.739C62.3621 74.4311 62.3599 74.1232 62.3599 73.7534C62.7352 74.0399 62.782 74.4475 62.9777 74.7631C63.0818 74.9307 63.1981 74.9882 63.3839 74.9784C63.5365 74.9701 63.5685 74.8819 63.569 74.7614C63.5701 74.2793 63.5718 73.7978 63.5674 73.3157C63.5663 73.1864 63.4974 73.1157 63.3541 73.1294Z" fill="white"/>
<path d="M38.2045 73.1268C37.7526 73.2424 38.0706 73.6264 37.984 73.873C37.9609 73.9393 37.9807 74.0203 37.9807 74.0943C37.9813 74.2981 37.9796 74.5024 37.9818 74.7062C37.9835 74.8394 37.9874 74.9719 38.1758 74.9774C38.5126 74.9873 38.8614 75.0158 39.1568 74.8323C39.5823 74.5676 39.6512 74.1611 39.5068 73.7119C39.3624 73.2621 38.7644 72.9833 38.2045 73.1268ZM38.5881 74.6405C38.0695 74.6159 38.5743 74.1688 38.2866 74.039C38.4767 73.8319 38.1317 73.4599 38.571 73.4511C38.932 73.444 39.1469 73.6516 39.1491 74.0412C39.1513 74.4246 38.9595 74.658 38.5881 74.6405Z" fill="white"/>
<path d="M69.5218 73.9973C69.7775 73.3443 69.6623 73.1459 68.9321 73.1224C68.5727 73.0413 68.4052 73.1947 68.4493 73.6248C68.4829 73.9557 68.4504 74.2926 68.4592 74.6263C68.4625 74.7594 68.3997 74.9495 68.6295 74.9681C68.8715 74.9879 68.8075 74.7966 68.8345 74.6602C68.8637 74.5123 68.7238 74.28 68.9382 74.2307C69.1768 74.1759 69.2044 74.4334 69.2826 74.5923C69.3151 74.6586 69.3515 74.7249 69.3724 74.795C69.4292 74.9873 69.5879 75.0141 69.7279 74.9599C69.9412 74.8772 69.7329 74.7479 69.7208 74.6438C69.6938 74.4186 69.4232 74.2493 69.5218 73.9973ZM68.9867 73.9091C68.7772 73.9086 68.8439 73.7393 68.8307 73.6237C68.8097 73.4363 68.9271 73.4111 69.0743 73.4264C69.2286 73.4423 69.303 73.5311 69.308 73.6812C69.2881 73.8812 69.1388 73.9097 68.9867 73.9091Z" fill="white"/>
<path d="M10.5578 73.1203C10.3737 73.1252 10.2976 73.2222 10.2387 73.3745C10.0711 73.8056 9.89257 74.2329 9.72337 74.663C9.68535 74.7594 9.60213 74.886 9.7377 74.9534C9.86281 75.0158 9.95981 74.9594 10.0557 74.8296C10.3528 74.4269 10.7336 74.422 11.0196 74.8252C11.1524 75.0125 11.2814 74.9851 11.4815 74.9293C11.2759 74.4072 11.0753 73.8933 10.8714 73.381C10.8146 73.2413 10.7534 73.1153 10.5578 73.1203ZM10.6972 74.2121C10.679 74.2521 10.4415 74.2609 10.4018 74.2099C10.2348 73.9946 10.4867 73.8242 10.49 73.4961C10.6647 73.821 10.7942 74.0012 10.6972 74.2121Z" fill="white"/>
<path d="M49.1323 73.7252C49.2348 73.6194 49.1522 73.3893 49.0045 73.2809C48.7107 73.0655 48.3497 73.0705 48.0367 73.1499C47.7628 73.2195 47.9397 73.5329 47.8995 73.7339C47.8818 73.8232 47.8967 73.9191 47.8967 74.0117C47.8967 74.2341 47.8912 74.4571 47.8995 74.6795C47.9039 74.7968 47.8565 74.9579 48.0588 74.9705C48.3084 74.9858 48.2302 74.793 48.2594 74.6615C48.2924 74.5141 48.1486 74.2851 48.3613 74.2308C48.6 74.17 48.6435 74.41 48.7118 74.5793C48.7466 74.6653 48.7868 74.7486 48.8221 74.834C48.8871 74.9902 49.0331 75.0044 49.1511 74.9628C49.3732 74.8839 49.1886 74.748 49.156 74.6522C49.0508 74.3448 48.8033 74.0654 49.1323 73.7252ZM48.7471 73.672C48.7636 73.849 48.6126 73.906 48.4512 73.9076C48.2544 73.9312 48.2704 73.7986 48.2528 73.6666C48.2186 73.408 48.3966 73.4408 48.5553 73.4096C48.8204 73.3581 48.7394 73.5915 48.7471 73.672Z" fill="white"/>
<path d="M20.1661 73.3708C20.106 73.2103 20.0289 73.1215 19.8509 73.1221C19.6684 73.1226 19.6018 73.2284 19.5433 73.3823C19.3471 73.8978 19.1355 74.4073 18.9277 74.9245C19.103 74.9826 19.2231 75.016 19.3482 74.8587C19.696 74.4216 20.0156 74.4133 20.3325 74.844C20.4345 74.9826 20.5392 75.0012 20.6583 74.9634C20.8831 74.8922 20.7062 74.7382 20.6764 74.6555C20.5205 74.2227 20.3276 73.8025 20.1661 73.3708ZM19.9672 74.2221C19.9247 74.2665 19.7302 74.2572 19.707 74.2161C19.5852 73.9986 19.7302 73.8189 19.8602 73.6294C19.8856 73.8321 20.1771 74.0019 19.9672 74.2221Z" fill="white"/>
<path d="M26.1285 74.5387C26.0651 74.1454 25.6374 73.9076 25.6843 73.4567C25.6992 73.3137 25.6093 73.1379 25.3834 73.1198C25.126 73.099 25.0758 73.2814 25.007 73.4512C24.8405 73.8632 24.6746 74.2758 24.5198 74.6921C24.4894 74.7743 24.3561 74.8954 24.5302 74.9628C24.6344 75.0033 24.7446 74.9759 24.8356 74.8822C25.2858 74.4171 25.4313 74.4122 25.848 74.8718C25.9411 74.9743 26.0342 74.9841 26.1423 74.9677C26.2338 74.954 26.2431 74.8773 26.1952 74.7075C26.1974 74.7091 26.1428 74.6269 26.1285 74.5387ZM25.4561 74.2254C25.4065 74.273 25.1618 74.2243 25.1585 74.2002C25.1299 73.9843 25.2004 73.7882 25.3982 73.5674C25.3856 73.8342 25.6859 74.0029 25.4561 74.2254Z" fill="white"/>
<path d="M51.0806 73.3896C51.0238 73.2368 50.9583 73.1322 50.7747 73.1201C50.5493 73.1053 50.492 73.2642 50.4308 73.4176C50.2313 73.915 50.0373 74.4141 49.834 74.9313C50.1327 75.0244 50.2104 74.9061 50.3168 74.7143C50.4711 74.4371 50.9996 74.47 51.1903 74.733C51.2586 74.8272 51.2729 75.0398 51.4405 74.9483C51.5777 74.8732 51.624 74.7132 51.5353 74.5231C51.3633 74.1544 51.2222 73.7715 51.0806 73.3896ZM50.8596 74.2289C50.8056 74.2755 50.5675 74.2267 50.5626 74.1966C50.5245 73.978 50.6254 73.7929 50.8249 73.4822C50.7924 73.8378 51.1164 74.0071 50.8596 74.2289Z" fill="white"/>
<path d="M36.7367 73.4568C36.8111 73.4574 36.886 73.4552 36.9604 73.4546C37.0718 73.4535 37.1313 73.3993 37.1274 73.287C37.1247 73.2059 37.0789 73.1577 37.0023 73.1254C36.4749 72.8991 36.0197 73.1802 36.0186 73.7351C36.0186 73.8277 36.0186 73.9209 36.0186 74.0135C36.0186 75.0084 36.0186 75.0122 36.7543 74.9782C36.8987 74.9717 37.1357 75.0692 37.1219 74.7881C37.1103 74.5476 36.8993 74.6627 36.7725 74.6446C36.616 74.6221 36.4286 74.6923 36.4264 74.4156C36.4236 74.1345 36.6138 74.1992 36.7692 74.1932C36.9009 74.1882 37.0662 74.203 37.0707 74.0293C37.0773 73.7817 36.8612 73.8918 36.7361 73.8705C36.6011 73.8475 36.4236 73.9214 36.4286 73.6716C36.4347 73.4453 36.5835 73.4563 36.7367 73.4568Z" fill="white"/>
<path d="M67.2726 73.4277C67.3271 73.4272 67.3811 73.4507 67.4362 73.4518C67.5448 73.454 67.6098 73.4058 67.6032 73.2869C67.5988 73.2047 67.558 73.1571 67.482 73.1242C66.9601 72.8979 66.4938 73.1812 66.4922 73.7279C66.4922 73.8391 66.4922 73.9509 66.4922 74.0621C66.4922 75.0269 66.4922 75.0291 67.277 74.9787C67.3916 74.9716 67.574 75.0477 67.5894 74.8532C67.6065 74.6418 67.4274 74.6516 67.2753 74.6385C67.1282 74.6253 66.9248 74.7223 66.9028 74.4423C66.878 74.124 67.1006 74.1985 67.2731 74.1931C67.4125 74.1887 67.5586 74.1777 67.5421 73.9986C67.5233 73.8008 67.3453 73.883 67.2312 73.8704C67.0747 73.8528 66.8719 73.9208 66.9061 73.6392C66.9342 73.4025 67.1127 73.4299 67.2726 73.4277Z" fill="white"/>
<path d="M52.651 73.1435C52.2906 73.1451 52.4829 73.4744 52.4432 73.659C52.4162 73.7823 52.4383 73.9165 52.4383 74.0458C52.4388 74.2671 52.4377 74.489 52.4388 74.7104C52.4399 74.8462 52.4542 74.9739 52.6389 74.9755C52.8202 74.9772 52.8643 74.8594 52.8384 74.7191C52.775 74.3745 52.9591 74.3049 53.2567 74.2452C53.6607 74.1647 53.7962 73.8508 53.6502 73.4826C53.4645 73.0125 53.007 73.1418 52.651 73.1435ZM53.0869 73.9696C52.8263 73.9981 52.8384 73.853 52.8472 73.7231C52.8549 73.6086 52.786 73.4404 52.9955 73.4316C53.1669 73.424 53.2887 73.5094 53.3008 73.6837C53.314 73.859 53.2021 73.9499 53.0869 73.9696Z" fill="white"/>
<path d="M60.6956 73.4504C60.7888 73.4543 60.8835 73.4554 60.9761 73.4472C61.0715 73.4384 61.1751 73.4099 61.1497 73.2883C61.1376 73.2302 61.0726 73.1623 61.0147 73.1382C60.4664 72.9086 60.0552 73.1727 60.0547 73.7485C60.0547 73.823 60.0547 73.8975 60.0547 73.972C60.0552 75.0003 60.0552 75.0042 60.7562 74.9729C60.9039 74.9664 61.1547 75.0611 61.1459 74.7993C61.137 74.5418 60.8868 74.6563 60.7458 74.6552C60.5606 74.6535 60.414 74.6722 60.4129 74.4169C60.4118 74.195 60.5441 74.195 60.7044 74.1835C60.8361 74.1742 61.0522 74.2673 61.0638 74.0421C61.0786 73.754 60.8262 73.9107 60.6934 73.8739C60.5788 73.8427 60.4206 73.9112 60.4146 73.6975C60.409 73.4904 60.5204 73.4433 60.6956 73.4504Z" fill="white"/>
<path d="M27.667 73.9071C27.5038 73.8287 27.2641 73.7915 27.3231 73.5499C27.3782 73.3247 27.5992 73.4392 27.7535 73.4288C27.8417 73.4233 27.9558 73.4556 27.9773 73.3296C28.0037 73.1729 27.8632 73.1532 27.7634 73.1329C27.4355 73.0667 27.1054 73.0705 26.94 73.4184C26.7576 73.803 27.02 73.992 27.3264 74.1487C27.4807 74.2276 27.716 74.2654 27.6493 74.5228C27.6075 74.6839 27.4471 74.6456 27.3214 74.6664C27.1803 74.6899 26.9235 74.5075 26.9224 74.7798C26.9219 75.017 27.1952 74.9639 27.3694 74.9935C27.6885 74.9798 27.9751 74.9009 28.0638 74.553C28.1492 74.2199 27.937 74.0369 27.667 73.9071Z" fill="white"/>
<path d="M58.8844 73.4227C59.0073 73.42 59.235 73.5378 59.2239 73.289C59.2162 73.1143 59.0151 73.1115 58.8635 73.1028C58.2749 73.0682 57.8313 73.4485 57.8087 74.0067C57.785 74.5962 58.1658 74.9863 58.7864 74.9896C58.9418 74.966 59.2162 75.0318 59.2113 74.7814C59.2058 74.5239 58.9445 74.674 58.8034 74.6658C58.4116 74.6433 58.2126 74.4335 58.211 74.0681C58.2099 73.644 58.4529 73.4331 58.8844 73.4227Z" fill="white"/>
<path d="M32.8766 73.9033C32.7173 73.8244 32.471 73.7959 32.5299 73.5505C32.584 73.327 32.805 73.436 32.9587 73.4256C33.0441 73.4201 33.1555 73.4716 33.1753 73.3347C33.1819 73.2897 33.1577 73.2103 33.1252 73.1955C32.816 73.0531 32.4892 73.0246 32.2489 73.2908C32.0113 73.5538 32.0565 73.8376 32.3641 74.0452C32.471 74.117 32.5955 74.1625 32.7085 74.226C32.811 74.2835 32.8871 74.3646 32.8661 74.4934C32.8375 74.6703 32.692 74.6413 32.5663 74.6676C32.4269 74.6966 32.1767 74.4955 32.1635 74.7684C32.1513 75.0215 32.4225 74.9634 32.6247 74.9968C32.9064 74.964 33.2029 74.8971 33.2861 74.5459C33.3655 74.2123 33.1439 74.0353 32.8766 73.9033Z" fill="white"/>
<path d="M29.6424 73.9083C29.4804 73.8327 29.2302 73.7955 29.2776 73.5604C29.3211 73.3446 29.5493 73.4279 29.7091 73.424C29.7962 73.4218 29.9075 73.4695 29.9296 73.3336C29.9549 73.1791 29.8249 73.1474 29.7212 73.1287C29.4148 73.075 29.0902 73.0679 28.9348 73.389C28.7623 73.7467 28.9535 73.9834 29.2881 74.1411C29.4462 74.2157 29.692 74.2677 29.632 74.5087C29.5802 74.7158 29.3674 74.666 29.1696 74.6534C29.104 74.6956 28.9304 74.5137 28.9028 74.7536C28.8901 74.8637 28.9585 74.9317 29.0566 74.953C29.4242 75.0325 29.805 75.0352 29.9974 74.6649C30.1748 74.3197 29.9759 74.0634 29.6424 73.9083Z" fill="white"/>
<path d="M55.9014 73.1394C55.8292 73.1137 55.6539 73.1597 55.6511 73.1876C55.6192 73.4764 55.2687 73.535 55.2466 73.953C55.0554 73.6363 54.9391 73.4479 54.8267 73.2567C54.7468 73.1213 54.609 73.0802 54.4916 73.1372C54.2965 73.232 54.4596 73.346 54.5158 73.4418C54.7666 73.8664 55.1121 74.2538 55.0052 74.8082C54.9859 74.9074 55.0532 74.9758 55.1706 74.9769C55.2797 74.978 55.3723 74.9287 55.3568 74.8257C55.2703 74.234 55.6363 73.816 55.9047 73.3586C55.9465 73.2862 56.0364 73.1871 55.9014 73.1394Z" fill="white"/>
<path d="M34.9585 73.124C34.8279 73.1163 34.6962 73.1223 34.5656 73.1229C34.3969 73.1234 34.2283 73.1234 34.0602 73.124C33.9593 73.124 33.8734 73.1519 33.8612 73.2675C33.8502 73.3711 33.8866 73.462 34.0073 73.4472C34.4813 73.3897 34.3892 73.7222 34.3925 73.989C34.3947 74.1567 34.3705 74.3282 34.3991 74.4903C34.4289 74.6596 34.2514 74.968 34.5948 74.9609C34.8897 74.9549 34.7403 74.6749 34.7546 74.5183C34.7783 74.2597 34.7623 73.9978 34.7607 73.737C34.7601 73.5803 34.7607 73.439 34.9889 73.4478C35.1029 73.4521 35.2881 73.5036 35.292 73.3059C35.2964 73.078 35.0969 73.1327 34.9585 73.124Z" fill="white"/>
<path d="M42.7067 73.1439C42.2989 73.1335 41.8905 73.1346 41.4821 73.1456C41.3983 73.1478 41.384 73.2431 41.3884 73.3204C41.3934 73.408 41.4463 73.4579 41.53 73.448C41.9985 73.3943 41.9092 73.7252 41.912 73.9915C41.9147 74.2325 41.9109 74.473 41.9147 74.7141C41.9169 74.8472 41.9225 74.9826 42.1159 74.9749C42.3143 74.9667 42.2884 74.8193 42.2912 74.6944C42.2956 74.5092 42.2807 74.3229 42.295 74.1389C42.3187 73.8348 42.1131 73.3834 42.7282 73.4288C42.7773 73.4327 42.8302 73.3927 42.904 73.3647C42.7965 73.2404 42.753 73.145 42.7067 73.1439Z" fill="white"/>
<path d="M65.3445 73.1236C65.2524 73.1132 65.1576 73.1214 65.0645 73.1214C65.0645 73.1225 65.0645 73.1236 65.0645 73.1247C64.8777 73.1247 64.6909 73.123 64.504 73.1252C64.3927 73.1263 64.3359 73.1877 64.3359 73.2972C64.3359 73.3778 64.3629 73.4556 64.4566 73.4435C64.9631 73.3805 64.8589 73.7388 64.8645 74.0204C64.8678 74.2061 64.8529 74.3929 64.8689 74.5776C64.8815 74.7227 64.7768 74.9517 65.043 74.9671C65.3329 74.9841 65.2238 74.7425 65.232 74.6022C65.248 74.3244 65.2326 74.045 65.2387 73.7662C65.242 73.6298 65.1885 73.4561 65.4332 73.449C65.5633 73.4452 65.7903 73.5131 65.7611 73.2786C65.7314 73.0436 65.4977 73.1416 65.3445 73.1236Z" fill="white"/>
<path d="M22.2999 74.6606C21.9345 74.7082 21.9125 74.5105 21.929 74.2349C21.9461 73.9582 21.9334 73.6794 21.9323 73.4016C21.9318 73.2691 21.9351 73.1283 21.7438 73.1299C21.5554 73.1315 21.5548 73.2745 21.5537 73.4044C21.5504 73.7561 21.5757 74.1105 21.546 74.4601C21.5118 74.8622 21.6193 75.0748 22.0178 74.9767C22.1401 74.9767 22.2151 74.9827 22.2889 74.9756C22.4245 74.9624 22.6284 75.0375 22.6339 74.8112C22.64 74.5609 22.4151 74.6458 22.2999 74.6606Z" fill="white"/>
<path d="M31.0294 73.0871C30.8943 73.0893 30.8216 73.1293 30.8221 73.2745C30.8244 73.7774 30.8271 74.2803 30.8194 74.7832C30.8166 74.9673 30.9103 74.9892 31.0635 74.9931C31.252 74.9974 31.2746 74.8955 31.2719 74.7493C31.2674 74.5257 31.2708 74.3022 31.2708 74.0787C31.2708 73.8179 31.2636 73.5571 31.273 73.2964C31.2796 73.1123 31.1831 73.0843 31.0294 73.0871Z" fill="white"/>
<path d="M15.1894 73.2787C15.19 73.1373 15.1255 73.0875 14.9866 73.0869C14.8378 73.0864 14.7315 73.1034 14.7386 73.2913C14.7474 73.5329 14.7408 73.7756 14.7408 74.0177C14.7408 74.2599 14.743 74.502 14.7397 74.7442C14.7375 74.8871 14.7518 74.9973 14.9436 74.9923C15.0924 74.9885 15.1939 74.9743 15.1916 74.788C15.1845 74.2851 15.1867 73.7816 15.1894 73.2787Z" fill="white"/>
<path d="M46.3614 74.2271C46.365 74.2205 46.3668 74.2146 46.3703 74.208C46.362 74.2086 46.3531 74.2092 46.3447 74.2104C46.3447 74.2098 46.3614 74.2271 46.3614 74.2271Z" fill="white"/>
<path d="M46.8049 73.1222C46.6743 73.1239 46.542 73.1102 46.413 73.1244C46.2328 73.1447 45.9578 73.0149 45.9484 73.3523C45.9418 73.5868 45.825 73.8903 46.2284 73.9484C46.3871 73.9714 46.4378 74.0651 46.3684 74.207C46.4334 74.201 46.499 74.1971 46.5635 74.1862C46.714 74.1615 46.9609 74.2727 46.9746 74.0317C46.9901 73.7627 46.7321 73.9084 46.596 73.8711C46.499 73.8449 46.3574 73.9095 46.3408 73.7397C46.332 73.6509 46.3067 73.5276 46.4059 73.4931C46.5238 73.452 46.6599 73.4614 46.7878 73.452C46.8958 73.4438 47.027 73.4668 47.0286 73.3019C47.0309 73.1568 46.9311 73.1211 46.8049 73.1222Z" fill="white"/>
<path d="M46.7347 74.6489C46.3643 74.7037 46.285 74.5278 46.3434 74.2205C46.1004 74.1564 45.9648 74.2018 45.9372 74.5092C45.8711 75.2351 46.4079 74.9157 46.7187 74.9726C46.8521 74.9968 47.0417 75.0187 47.0301 74.7853C47.0191 74.5788 46.8399 74.6335 46.7347 74.6489Z" fill="white"/>
<path d="M46.3454 74.209C46.3449 74.2129 46.3443 74.2163 46.3438 74.2202C46.3494 74.2219 46.355 74.223 46.3612 74.2247C46.3612 74.2252 46.3454 74.209 46.3454 74.209Z" fill="white"/>
<path d="M48.0198 8.67432C48.0198 8.67366 48.0198 8.67366 48.0198 8.67432C48.0166 8.67498 48.0127 8.67565 48.0088 8.67697C48.0088 8.67763 48.0094 8.67829 48.0094 8.67895C48.0127 8.67697 48.0159 8.67565 48.0198 8.67432Z" fill="white"/>
<path d="M48.0211 8.67188C48.0204 8.67188 48.019 8.6726 48.0183 8.6726C48.0183 8.6726 48.0183 8.67332 48.0176 8.67332C48.019 8.67332 48.0197 8.6726 48.0211 8.67188Z" fill="white"/>
</g>
<defs>
<clipPath id="clip0">
<rect width="80" height="75" fill="white"/>
</clipPath>
</defs>
</svg>
