<svg width="48" height="59" viewBox="0 0 48 59" fill="none" xmlns="http://www.w3.org/2000/svg">
<rect width="48" height="58.878" rx="4.46102" fill="#DF0000"/>
<path d="M21.8698 14.6917C22.1397 14.6917 22.1397 14.6917 21.8698 14.6917C22.1397 13.6672 22.4096 13.1549 22.4096 12.3866V11.8743C22.6795 10.5937 22.6795 9.56923 22.4096 9.3131C22.4096 9.3131 22.4096 9.3131 22.4096 9.05698L22.1397 8.80086C22.1397 8.80086 22.1397 9.05698 21.8698 9.05698C21.3299 10.5937 21.3299 12.3866 21.8698 14.6917ZM13.7723 32.3642C13.2325 32.6203 12.6926 32.8764 12.4227 33.1325C10.5333 34.6693 9.18374 36.462 8.91382 37.2305C10.5333 36.9744 12.1528 35.4376 13.7723 32.3642C14.0422 32.3642 14.0422 32.3642 13.7723 32.3642ZM38.6046 28.5223C38.3346 28.2662 37.255 27.4978 33.4761 27.4978C33.2062 27.4978 33.2062 27.4978 32.9363 27.4978C32.9363 27.4978 32.9363 27.4978 32.9363 27.7539C34.8257 28.5223 36.7151 29.0346 38.0647 29.0346C38.3346 29.0346 38.3346 29.0346 38.6046 29.0346H38.8745C38.8745 29.0346 38.8745 29.0346 38.8745 28.7784C38.8745 28.7784 38.6046 28.7784 38.6046 28.5223ZM39.6842 30.5713C39.1443 30.8274 38.3346 31.0835 37.255 31.0835C35.0956 31.0835 31.8567 30.5713 29.1575 29.2907C24.5689 29.8029 21.06 30.3151 18.3609 31.3396C18.091 31.3396 18.091 31.3396 17.821 31.5957C14.5821 36.9744 11.8829 39.5356 9.72357 39.5356C9.18374 39.5356 8.91382 39.5356 8.64391 39.2794L7.29433 38.5111V38.255C7.02441 37.7426 7.02441 37.4866 7.02441 36.9744C7.29433 35.6938 8.91382 33.3886 12.1528 31.5957C12.6926 31.3396 13.5024 30.8274 14.5821 30.3151C15.3918 29.0345 16.2015 27.4977 17.2812 25.705C18.6308 23.1437 19.4405 20.5825 20.2503 18.2774C19.1706 15.2039 18.6308 13.4111 19.7105 9.82535C19.9804 8.80086 20.7901 7.77637 21.8698 7.77637H22.4096C22.9494 7.77637 23.4893 8.03249 24.0291 8.28861C25.9186 10.0815 25.1088 14.1794 24.0291 17.509C24.0291 17.7652 24.0291 17.7652 24.0291 17.7652C25.1088 20.5825 26.7283 22.8876 28.3478 24.4244C29.1575 24.9366 29.6973 25.4488 30.777 25.9611C32.1266 25.9611 33.2062 25.705 34.2859 25.705C37.5249 25.705 39.6842 26.2172 40.4939 27.4978C40.7639 28.0102 40.7639 28.5223 40.7639 29.0346C40.494 29.2907 40.224 30.059 39.6842 30.5713ZM22.1397 20.5825C21.5999 22.3754 20.5202 24.4244 19.4405 26.7295C18.9007 27.7538 18.3609 28.5223 17.821 29.5468H18.091H18.3609C21.8698 28.2662 25.1088 27.4978 27.2681 27.2417C26.7282 26.9856 26.4583 26.7295 26.1884 26.4733C24.8389 24.9366 23.2194 22.8876 22.1397 20.5825Z" fill="white"/>
<path d="M17.7204 44.1228C17.7204 45.033 17.5457 45.6831 17.1962 46.0732C16.8549 46.4551 16.3429 46.6461 15.6603 46.6461H14.7582V50.2666H13.7099V41.5872H15.6603C16.3511 41.5872 16.8671 41.7782 17.2084 42.1601C17.5498 42.5421 17.7204 43.1963 17.7204 44.1228ZM16.6721 44.1228C16.6721 43.5458 16.5867 43.1353 16.4161 42.8915C16.2454 42.6477 15.9813 42.5258 15.6237 42.5258H14.7582V45.7075H15.6237C15.9813 45.7075 16.2454 45.5856 16.4161 45.3418C16.5867 45.098 16.6721 44.6916 16.6721 44.1228ZM23.0057 43.3548C23.0789 43.8343 23.1154 44.6916 23.1154 45.9269C23.1154 47.1622 23.0789 48.0236 23.0057 48.5112C22.9326 48.9907 22.7619 49.3727 22.4937 49.6571C22.128 50.0634 21.6323 50.2666 21.0065 50.2666H19.0073V41.5872H21.0065C21.6323 41.5872 22.128 41.7904 22.4937 42.1967C22.7619 42.4811 22.9326 42.8672 23.0057 43.3548ZM22.0061 48.1211C22.0468 47.731 22.0671 46.9996 22.0671 45.9269C22.0671 44.8542 22.0468 44.1228 22.0061 43.7327C21.9655 43.3426 21.868 43.05 21.7136 42.855C21.5348 42.6356 21.2869 42.5258 20.97 42.5258H20.0557V49.328H20.97C21.2869 49.328 21.5348 49.2182 21.7136 48.9988C21.868 48.8038 21.9655 48.5112 22.0061 48.1211ZM27.8238 42.5258H25.5199V45.4393H27.5069V46.3779H25.5199V50.2666H24.4715V41.5872H27.8238V42.5258Z" fill="white"/>
<path d="M34.7281 51.114C34.8858 51.2717 35.1415 51.2717 35.2992 51.114L37.869 48.5442C38.0267 48.3865 38.0267 48.1309 37.869 47.9732C37.7113 47.8155 37.4556 47.8155 37.2979 47.9732L35.0137 50.2574L32.7294 47.9732C32.5717 47.8155 32.3161 47.8155 32.1584 47.9732C32.0007 48.1309 32.0007 48.3865 32.1584 48.5442L34.7281 51.114ZM34.6099 42.1572V50.8285H35.4175V42.1572H34.6099Z" fill="white"/>
</svg>
