<svg width="51" height="51" viewBox="0 0 51 51" fill="none" xmlns="http://www.w3.org/2000/svg">
<path d="M0 3.07528C0 1.62558 0 0.90073 0.450365 0.450365C0.90073 0 1.62558 0 3.07528 0H47.6669C49.1166 0 49.8415 0 50.2918 0.450365C50.7422 0.90073 50.7422 1.62558 50.7422 3.07528V47.6669C50.7422 49.1166 50.7422 49.8415 50.2918 50.2918C49.8415 50.7422 49.1166 50.7422 47.6669 50.7422H3.07528C1.62558 50.7422 0.90073 50.7422 0.450365 50.2918C0 49.8415 0 49.1166 0 47.6669V3.07528Z" fill="#DF0000"/>
<path d="M36.9045 27.2846V35.7658H31.9399V27.8018C31.9399 25.8366 31.2159 24.492 29.4576 24.492C28.113 24.492 27.2856 25.4229 26.9753 26.2503C26.8719 26.5606 26.7685 26.9743 26.7685 27.4915V35.7658H21.8039C21.8039 35.7658 21.9073 22.32 21.8039 20.9755H26.7685V23.044C27.389 22.0097 28.6302 20.5617 31.2159 20.5617C34.4222 20.5617 36.9045 22.7337 36.9045 27.2846ZM16.6324 13.8389C14.9776 13.8389 13.8398 14.9766 13.8398 16.4246C13.8398 17.8726 14.8741 19.0103 16.529 19.0103C18.2873 19.0103 19.3216 17.8726 19.3216 16.4246C19.425 14.8732 18.3907 13.8389 16.6324 13.8389ZM14.1501 35.7658H19.1147V20.9755H14.1501V35.7658Z" fill="white"/>
</svg>
