<svg width="488" height="146" viewBox="0 0 488 146" fill="none" xmlns="http://www.w3.org/2000/svg">
<path d="M390.546 144.189H412.462V1.68732H393.468V86.9736L371.552 1.68732H344.814V144.189H363.954V40.9558L390.546 144.189ZM308.141 144.189H329.473V1.68732H308.141V144.189ZM276.436 144.189H298.352L268.692 65.1919L298.352 1.68732H277.02L249.114 63.8113V1.68732H227.782V144.189H249.114V100.319L255.689 87.2804L276.436 144.189ZM149.322 109.983C149.322 132.838 160.719 145.876 181.758 145.876C202.651 145.876 214.194 132.838 214.194 109.983V35.8939C214.194 13.0384 202.798 0 181.758 0C160.719 0 149.322 13.0384 149.322 35.8939V109.983ZM170.654 34.3599C170.654 24.236 174.891 20.2478 181.758 20.2478C188.479 20.2478 192.862 24.0826 192.862 34.3599V111.363C192.862 121.487 188.625 125.475 181.758 125.475C175.037 125.475 170.654 121.64 170.654 111.363V34.3599ZM75.8299 35.8939C75.8299 76.5429 117.471 82.0651 117.471 111.363C117.471 121.487 113.234 125.168 106.366 125.168C99.6455 125.168 95.2623 121.487 95.2623 111.363V101.239H75.2455V109.983C75.2455 132.838 86.0575 145.876 107.097 145.876C127.99 145.876 138.948 132.838 138.948 109.983C138.948 69.3335 97.3078 63.8113 97.3078 34.5133C97.3078 24.3894 101.253 20.4012 107.974 20.4012C114.695 20.4012 118.639 24.236 118.639 34.5133V40.3423H138.802V35.8939C138.656 13.0384 127.99 0 107.243 0C86.4958 0 75.8299 13.0384 75.8299 35.8939ZM0 109.983C0 132.685 11.3964 145.723 32.4359 145.723C53.3293 145.723 64.8718 132.685 64.8718 109.829V35.8939C64.7257 13.0384 53.3293 0 32.4359 0C11.3964 0 0 13.0384 0 35.8939V109.983ZM21.3317 34.3599C21.3317 24.236 25.5689 20.2478 32.4359 20.2478C39.1569 20.2478 43.5401 24.0826 43.5401 34.3599V111.363C43.5401 121.487 39.303 125.475 32.4359 125.475C25.715 125.475 21.3317 121.64 21.3317 111.363V34.3599Z" fill="white"/>
<path d="M425.027 35.8939C425.027 76.5429 466.668 82.0651 466.668 111.363C466.668 121.487 462.431 125.168 455.564 125.168C448.843 125.168 444.46 121.487 444.46 111.363V101.239H424.297V109.983C424.297 132.838 435.109 145.876 456.148 145.876C477.042 145.876 488 132.838 488 109.983C488 69.3335 446.359 63.8113 446.359 34.5133C446.359 24.3894 450.304 20.4012 457.025 20.4012C463.746 20.4012 467.691 24.236 467.691 34.5133V40.3423H487.854V35.8939C487.854 13.0384 477.188 0 456.441 0C435.693 0 425.027 13.0384 425.027 35.8939Z" fill="#DF0000"/>
</svg>
