<svg width="510" height="183" viewBox="0 0 510 183" fill="none" xmlns="http://www.w3.org/2000/svg">
<path d="M282.15 104.169H297.983V1.219H284.261V62.834L268.427 1.219H249.111V104.169H262.938V29.5885L282.15 104.169ZM222.616 104.169H238.027V1.219H222.616V104.169ZM199.711 104.169H215.544L194.116 47.0978L215.544 1.219H200.133L179.972 46.1004V1.219H164.561V104.169H179.972V72.4752L184.722 63.0556L199.711 104.169ZM107.878 79.4568C107.878 95.9687 116.111 105.388 131.311 105.388C146.405 105.388 154.744 95.9687 154.744 79.4568V25.9315C154.744 9.41956 146.511 0 131.311 0C116.111 0 107.878 9.41956 107.878 25.9315V79.4568ZM123.289 24.8233C123.289 17.5093 126.35 14.628 131.311 14.628C136.166 14.628 139.333 17.3985 139.333 24.8233V80.4541C139.333 87.7681 136.272 90.6494 131.311 90.6494C126.455 90.6494 123.289 87.879 123.289 80.4541V24.8233ZM54.7832 25.9315C54.7832 55.2984 84.8665 59.2878 84.8665 80.4541C84.8665 87.7681 81.8054 90.4278 76.8443 90.4278C71.9888 90.4278 68.8221 87.7681 68.8221 80.4541V73.1401H54.361V79.4568C54.361 95.9687 62.1721 105.388 77.3721 105.388C92.4665 105.388 100.383 95.9687 100.383 79.4568C100.383 50.0899 70.2999 46.1004 70.2999 24.9341C70.2999 17.6201 73.1499 14.7388 78.0054 14.7388C82.861 14.7388 85.711 17.5093 85.711 24.9341V29.1452H100.278V25.9315C100.172 9.41956 92.4665 0 77.4777 0C62.4888 0 54.7832 9.41956 54.7832 25.9315ZM0 79.4568C0 95.8579 8.23332 105.277 23.4333 105.277C38.5277 105.277 46.8666 95.8579 46.8666 79.3459V25.9315C46.761 9.41956 38.5277 0 23.4333 0C8.23332 0 0 9.41956 0 25.9315V79.4568ZM15.4111 24.8233C15.4111 17.5093 18.4722 14.628 23.4333 14.628C28.2888 14.628 31.4555 17.3985 31.4555 24.8233V80.4541C31.4555 87.7681 28.3944 90.6494 23.4333 90.6494C18.5777 90.6494 15.4111 87.879 15.4111 80.4541V24.8233Z" fill="white"/>
<path d="M307.06 25.9315C307.06 55.2984 337.143 59.2878 337.143 80.4541C337.143 87.7681 334.082 90.4278 329.121 90.4278C324.266 90.4278 321.099 87.7681 321.099 80.4541V73.1401H306.532V79.4568C306.532 95.9687 314.343 105.388 329.543 105.388C344.638 105.388 352.554 95.9687 352.554 79.4568C352.554 50.0899 322.471 46.1004 322.471 24.9341C322.471 17.6201 325.321 14.7388 330.177 14.7388C335.032 14.7388 337.882 17.5093 337.882 24.9341V29.1452H352.449V25.9315C352.449 9.41956 344.743 0 329.754 0C314.766 0 307.06 9.41956 307.06 25.9315Z" fill="#DF0000"/>
<path d="M284.835 146.845C284.835 149.433 284.327 151.327 283.31 152.529C282.317 153.73 280.711 154.331 278.493 154.331H276.171V164H272.29V139.325H278.493C280.711 139.325 282.317 139.925 283.31 141.127C284.327 142.328 284.835 144.234 284.835 146.845ZM280.399 149.86C280.769 149.19 280.954 148.185 280.954 146.845C280.954 145.505 280.769 144.5 280.399 143.83C280.03 143.16 279.348 142.825 278.354 142.825H276.171V150.831H278.354C279.348 150.831 280.03 150.507 280.399 149.86ZM301.539 164H297.484L294.261 153.88H292.078V164H288.196V139.325H294.434C296.675 139.325 298.281 139.902 299.252 141.058C300.245 142.19 300.742 144.038 300.742 146.603C300.742 148.243 300.522 149.583 300.083 150.623C299.667 151.662 298.928 152.471 297.865 153.049L301.539 164ZM296.375 149.41C296.699 148.74 296.86 147.804 296.86 146.603C296.86 145.401 296.699 144.477 296.375 143.83C296.052 143.16 295.416 142.825 294.469 142.825H292.078V150.38H294.469C295.416 150.38 296.052 150.057 296.375 149.41ZM316.776 144.696C316.984 146.129 317.088 148.451 317.088 151.662C317.088 154.874 316.984 157.207 316.776 158.663C316.568 160.095 316.071 161.262 315.286 162.163C314.107 163.573 312.513 164.277 310.503 164.277C308.493 164.277 306.899 163.573 305.72 162.163C304.958 161.239 304.461 160.061 304.23 158.628C304.022 157.173 303.918 154.851 303.918 151.662C303.918 148.474 304.022 146.164 304.23 144.731C304.461 143.276 304.958 142.086 305.72 141.162C306.899 139.752 308.493 139.048 310.503 139.048C312.513 139.048 314.107 139.752 315.286 141.162C316.071 142.063 316.568 143.241 316.776 144.696ZM313.033 157.207C313.148 155.983 313.206 154.135 313.206 151.662C313.206 149.19 313.148 147.353 313.033 146.152C312.94 144.928 312.721 144.038 312.374 143.484C311.982 142.86 311.358 142.548 310.503 142.548C309.671 142.548 309.059 142.86 308.666 143.484C308.089 144.408 307.8 147.134 307.8 151.662C307.8 156.191 308.089 158.917 308.666 159.841C309.059 160.465 309.671 160.777 310.503 160.777C311.358 160.777 311.982 160.465 312.374 159.841C312.721 159.287 312.94 158.409 313.033 157.207ZM329.439 157.554C329.439 159.633 328.872 161.251 327.74 162.406C326.562 163.653 324.91 164.277 322.785 164.277C320.798 164.277 319.18 163.619 317.933 162.302L320.636 159.703C321.144 160.419 321.86 160.777 322.785 160.777C323.616 160.777 324.286 160.5 324.795 159.945C325.303 159.368 325.557 158.571 325.557 157.554V139.325H329.439V157.554ZM343.74 164H333.378V139.325H343.74V142.825H337.259V149.826H342.839V153.326H337.259V160.5H343.74V164ZM359.352 157.45C359.283 159.783 358.601 161.539 357.308 162.718C356.199 163.757 354.778 164.277 353.045 164.277C351.035 164.277 349.441 163.573 348.262 162.163C347.5 161.239 347.003 160.061 346.772 158.628C346.564 157.173 346.46 154.851 346.46 151.662C346.46 148.474 346.564 146.164 346.772 144.731C347.003 143.276 347.5 142.086 348.262 141.162C349.441 139.752 351.035 139.048 353.045 139.048C354.801 139.048 356.245 139.579 357.377 140.642C358.624 141.774 359.283 143.507 359.352 145.84H355.471C355.425 144.731 355.228 143.934 354.882 143.449C354.512 142.848 353.9 142.548 353.045 142.548C352.213 142.548 351.601 142.86 351.208 143.484C350.861 144.038 350.63 144.928 350.515 146.152C350.399 147.353 350.342 149.19 350.342 151.662C350.342 154.135 350.399 155.983 350.515 157.207C350.63 158.409 350.861 159.287 351.208 159.841C351.601 160.465 352.213 160.777 353.045 160.777C353.9 160.777 354.512 160.477 354.882 159.876C355.228 159.345 355.425 158.536 355.471 157.45H359.352ZM373.093 142.825H368.935V164H365.053V142.825H360.929V139.325H373.093V142.825ZM394.625 144.8C394.833 146.21 394.937 148.486 394.937 151.628C394.937 154.77 394.833 157.069 394.625 158.524C394.417 159.957 393.92 161.1 393.135 161.955C391.933 163.318 390.339 164 388.352 164H382.079V139.325H388.352C390.339 139.325 391.933 140.006 393.135 141.37C393.92 142.224 394.417 143.368 394.625 144.8ZM391.055 151.628C391.055 149.225 390.998 147.457 390.882 146.325C390.79 145.193 390.57 144.361 390.224 143.83C389.785 143.16 389.126 142.825 388.248 142.825H385.961V160.5H388.248C389.126 160.5 389.785 160.165 390.224 159.495C390.57 158.963 390.79 158.132 390.882 156.999C390.998 155.844 391.055 154.054 391.055 151.628ZM408.788 164H398.426V139.325H408.788V142.825H402.307V149.826H407.887V153.326H402.307V160.5H408.788V164ZM422.529 164H412.167V139.325H416.048V160.5H422.529V164ZM429.315 164H425.433V139.325H429.315V164ZM446.415 139.325L440.974 164H436.954L431.548 139.325H435.81L438.964 158.039L442.152 139.325H446.415ZM458.979 164H448.617V139.325H458.979V142.825H452.498V149.826H458.078V153.326H452.498V160.5H458.979V164ZM475.7 164H471.645L468.422 153.88H466.239V164H462.357V139.325H468.595C470.836 139.325 472.442 139.902 473.413 141.058C474.406 142.19 474.903 144.038 474.903 146.603C474.903 148.243 474.683 149.583 474.244 150.623C473.828 151.662 473.089 152.471 472.026 153.049L475.7 164ZM470.536 149.41C470.86 148.74 471.021 147.804 471.021 146.603C471.021 145.401 470.86 144.477 470.536 143.83C470.213 143.16 469.577 142.825 468.63 142.825H466.239V150.38H468.63C469.577 150.38 470.213 150.057 470.536 149.41ZM489.766 139.325L484.984 154.331V164H481.102V154.331L476.32 139.325H480.617L483.043 149.098L485.504 139.325H489.766Z" fill="white"/>
</svg>
