<svg width="451" height="205" viewBox="0 0 451 205" fill="none" xmlns="http://www.w3.org/2000/svg">
<path d="M282.15 104.169H297.983V1.219H284.261V62.834L268.427 1.219H249.111V104.169H262.938V29.5885L282.15 104.169ZM222.616 104.169H238.027V1.219H222.616V104.169ZM199.711 104.169H215.544L194.116 47.0978L215.544 1.219H200.133L179.972 46.1004V1.219H164.561V104.169H179.972V72.4752L184.722 63.0556L199.711 104.169ZM107.878 79.4568C107.878 95.9687 116.111 105.388 131.311 105.388C146.405 105.388 154.744 95.9687 154.744 79.4568V25.9315C154.744 9.41956 146.511 0 131.311 0C116.111 0 107.878 9.41956 107.878 25.9315V79.4568ZM123.289 24.8233C123.289 17.5093 126.35 14.628 131.311 14.628C136.166 14.628 139.333 17.3985 139.333 24.8233V80.4541C139.333 87.7681 136.272 90.6494 131.311 90.6494C126.455 90.6494 123.289 87.879 123.289 80.4541V24.8233ZM54.7832 25.9315C54.7832 55.2984 84.8665 59.2878 84.8665 80.4541C84.8665 87.7681 81.8054 90.4278 76.8443 90.4278C71.9888 90.4278 68.8221 87.7681 68.8221 80.4541V73.1401H54.361V79.4568C54.361 95.9687 62.1721 105.388 77.3721 105.388C92.4665 105.388 100.383 95.9687 100.383 79.4568C100.383 50.0899 70.2999 46.1004 70.2999 24.9341C70.2999 17.6201 73.1499 14.7388 78.0054 14.7388C82.861 14.7388 85.711 17.5093 85.711 24.9341V29.1452H100.278V25.9315C100.172 9.41956 92.4665 0 77.4777 0C62.4888 0 54.7832 9.41956 54.7832 25.9315ZM0 79.4568C0 95.8579 8.23332 105.277 23.4333 105.277C38.5277 105.277 46.8666 95.8579 46.8666 79.3459V25.9315C46.761 9.41956 38.5277 0 23.4333 0C8.23332 0 0 9.41956 0 25.9315V79.4568ZM15.4111 24.8233C15.4111 17.5093 18.4722 14.628 23.4333 14.628C28.2888 14.628 31.4555 17.3985 31.4555 24.8233V80.4541C31.4555 87.7681 28.3944 90.6494 23.4333 90.6494C18.5777 90.6494 15.4111 87.879 15.4111 80.4541V24.8233Z" fill="white"/>
<path d="M307.06 25.9315C307.06 55.2984 337.143 59.2878 337.143 80.4541C337.143 87.7681 334.082 90.4278 329.121 90.4278C324.266 90.4278 321.099 87.7681 321.099 80.4541V73.1401H306.532V79.4568C306.532 95.9687 314.343 105.388 329.543 105.388C344.638 105.388 352.554 95.9687 352.554 79.4568C352.554 50.0899 322.471 46.1004 322.471 24.9341C322.471 17.6201 325.321 14.7388 330.177 14.7388C335.032 14.7388 337.882 17.5093 337.882 24.9341V29.1452H352.449V25.9315C352.449 9.41956 344.743 0 329.754 0C314.766 0 307.06 9.41956 307.06 25.9315Z" fill="#DF0000"/>
<path d="M313.147 146.845C313.147 149.433 312.639 151.327 311.622 152.529C310.629 153.73 309.023 154.331 306.805 154.331H304.483V164H300.602V139.325H306.805C309.023 139.325 310.629 139.925 311.622 141.127C312.639 142.328 313.147 144.234 313.147 146.845ZM308.711 149.86C309.081 149.19 309.266 148.185 309.266 146.845C309.266 145.505 309.081 144.5 308.711 143.83C308.342 143.16 307.66 142.825 306.667 142.825H304.483V150.831H306.667C307.66 150.831 308.342 150.507 308.711 149.86ZM329.851 164H325.796L322.573 153.88H320.39V164H316.508V139.325H322.746C324.988 139.325 326.593 139.902 327.564 141.058C328.557 142.19 329.054 144.038 329.054 146.603C329.054 148.243 328.834 149.583 328.395 150.623C327.98 151.662 327.24 152.471 326.177 153.049L329.851 164ZM324.687 149.41C325.011 148.74 325.172 147.804 325.172 146.603C325.172 145.401 325.011 144.477 324.687 143.83C324.364 143.16 323.728 142.825 322.781 142.825H320.39V150.38H322.781C323.728 150.38 324.364 150.057 324.687 149.41ZM345.088 144.696C345.296 146.129 345.4 148.451 345.4 151.662C345.4 154.874 345.296 157.207 345.088 158.663C344.88 160.095 344.383 161.262 343.598 162.163C342.419 163.573 340.825 164.277 338.815 164.277C336.805 164.277 335.211 163.573 334.032 162.163C333.27 161.239 332.773 160.061 332.542 158.628C332.334 157.173 332.23 154.851 332.23 151.662C332.23 148.474 332.334 146.164 332.542 144.731C332.773 143.276 333.27 142.086 334.032 141.162C335.211 139.752 336.805 139.048 338.815 139.048C340.825 139.048 342.419 139.752 343.598 141.162C344.383 142.063 344.88 143.241 345.088 144.696ZM341.345 157.207C341.46 155.983 341.518 154.135 341.518 151.662C341.518 149.19 341.46 147.353 341.345 146.152C341.252 144.928 341.033 144.038 340.686 143.484C340.294 142.86 339.67 142.548 338.815 142.548C337.983 142.548 337.371 142.86 336.978 143.484C336.401 144.408 336.112 147.134 336.112 151.662C336.112 156.191 336.401 158.917 336.978 159.841C337.371 160.465 337.983 160.777 338.815 160.777C339.67 160.777 340.294 160.465 340.686 159.841C341.033 159.287 341.252 158.409 341.345 157.207ZM357.751 157.554C357.751 159.633 357.184 161.251 356.052 162.406C354.874 163.653 353.222 164.277 351.097 164.277C349.11 164.277 347.492 163.619 346.245 162.302L348.948 159.703C349.456 160.419 350.172 160.777 351.097 160.777C351.928 160.777 352.598 160.5 353.107 159.945C353.615 159.368 353.869 158.571 353.869 157.554V139.325H357.751V157.554ZM372.052 164H361.69V139.325H372.052V142.825H365.571V149.826H371.151V153.326H365.571V160.5H372.052V164ZM387.664 157.45C387.595 159.783 386.913 161.539 385.62 162.718C384.511 163.757 383.09 164.277 381.357 164.277C379.347 164.277 377.753 163.573 376.574 162.163C375.812 161.239 375.315 160.061 375.084 158.628C374.876 157.173 374.772 154.851 374.772 151.662C374.772 148.474 374.876 146.164 375.084 144.731C375.315 143.276 375.812 142.086 376.574 141.162C377.753 139.752 379.347 139.048 381.357 139.048C383.113 139.048 384.557 139.579 385.689 140.642C386.936 141.774 387.595 143.507 387.664 145.84H383.783C383.737 144.731 383.54 143.934 383.194 143.449C382.824 142.848 382.212 142.548 381.357 142.548C380.525 142.548 379.913 142.86 379.52 143.484C379.173 144.038 378.942 144.928 378.827 146.152C378.711 147.353 378.654 149.19 378.654 151.662C378.654 154.135 378.711 155.983 378.827 157.207C378.942 158.409 379.173 159.287 379.52 159.841C379.913 160.465 380.525 160.777 381.357 160.777C382.212 160.777 382.824 160.477 383.194 159.876C383.54 159.345 383.737 158.536 383.783 157.45H387.664ZM401.405 142.825H397.247V164H393.365V142.825H389.241V139.325H401.405V142.825ZM310.05 185.8C310.258 187.21 310.362 189.486 310.362 192.628C310.362 195.77 310.258 198.069 310.05 199.524C309.843 200.957 309.346 202.1 308.56 202.955C307.359 204.318 305.765 205 303.778 205H297.505V180.325H303.778C305.765 180.325 307.359 181.006 308.56 182.37C309.346 183.224 309.843 184.368 310.05 185.8ZM306.481 192.628C306.481 190.225 306.423 188.457 306.308 187.325C306.215 186.193 305.996 185.361 305.649 184.83C305.21 184.16 304.552 183.825 303.674 183.825H301.386V201.5H303.674C304.552 201.5 305.21 201.165 305.649 200.495C305.996 199.963 306.215 199.132 306.308 197.999C306.423 196.844 306.481 195.054 306.481 192.628ZM324.214 205H313.852V180.325H324.214V183.825H317.733V190.826H323.313V194.326H317.733V201.5H324.214V205ZM337.954 205H327.592V180.325H331.474V201.5H337.954V205ZM344.741 205H340.859V180.325H344.741V205ZM361.841 180.325L356.4 205H352.38L346.973 180.325H351.236L354.39 199.039L357.578 180.325H361.841ZM374.404 205H364.042V180.325H374.404V183.825H367.924V190.826H373.503V194.326H367.924V201.5H374.404V205ZM391.125 205H387.071L383.848 194.88H381.664V205H377.783V180.325H384.021C386.262 180.325 387.868 180.902 388.838 182.058C389.832 183.19 390.328 185.038 390.328 187.603C390.328 189.243 390.109 190.583 389.67 191.623C389.254 192.662 388.515 193.471 387.452 194.049L391.125 205ZM385.962 190.41C386.285 189.74 386.447 188.804 386.447 187.603C386.447 186.401 386.285 185.477 385.962 184.83C385.638 184.16 385.003 183.825 384.056 183.825H381.664V191.38H384.056C385.003 191.38 385.638 191.057 385.962 190.41ZM405.192 180.325L400.409 195.331V205H396.528V195.331L391.745 180.325H396.043L398.469 190.098L400.929 180.325H405.192Z" fill="white"/>
</svg>
