<svg width="110" height="57" viewBox="0 0 110 57" fill="none" xmlns="http://www.w3.org/2000/svg">
<path d="M88.3986 31.7567H93.2564V0.371621H89.0463V19.1554L84.1885 0.371621H78.262V31.7567H82.5045V9.02026L88.3986 31.7567ZM70.1334 31.7567H74.8616V0.371621H70.1334V31.7567ZM63.1058 31.7567H67.9635L61.3894 14.3581L67.9635 0.371621H63.2353L57.0497 14.054V0.371621H52.3215V31.7567H57.0497V22.0946L58.5071 19.2229L63.1058 31.7567ZM34.9307 24.2229C34.9307 29.2567 37.4567 32.1283 42.1202 32.1283C46.7513 32.1283 49.3097 29.2567 49.3097 24.2229V7.90539C49.3097 2.87162 46.7836 0 42.1202 0C37.4567 0 34.9307 2.87162 34.9307 7.90539V24.2229ZM39.6589 7.56756C39.6589 5.33783 40.5981 4.45945 42.1202 4.45945C43.6099 4.45945 44.5814 5.30405 44.5814 7.56756V24.527C44.5814 26.7567 43.6423 27.6351 42.1202 27.6351C40.6305 27.6351 39.6589 26.7905 39.6589 24.527V7.56756ZM18.6409 7.90539C18.6409 16.8581 27.8707 18.0743 27.8707 24.527C27.8707 26.7567 26.9315 27.5675 25.4094 27.5675C23.9197 27.5675 22.9481 26.7567 22.9481 24.527V22.2973H18.5114V24.2229C18.5114 29.2567 20.9079 32.1283 25.5713 32.1283C30.2024 32.1283 32.6313 29.2567 32.6313 24.2229C32.6313 15.2702 23.4015 14.054 23.4015 7.60134C23.4015 5.37161 24.2759 4.49324 25.7657 4.49324C27.2554 4.49324 28.1298 5.33783 28.1298 7.60134V8.88512H32.5989V7.90539C32.5665 2.87162 30.2024 0 25.6037 0C21.005 0 18.6409 2.87162 18.6409 7.90539ZM1.83301 24.2229C1.83301 29.2229 4.35905 32.0945 9.02252 32.0945C13.6536 32.0945 16.212 29.2229 16.212 24.1891V7.90539C16.1796 2.87162 13.6536 0 9.02252 0C4.35905 0 1.83301 2.87162 1.83301 7.90539V24.2229ZM6.56124 7.56756C6.56124 5.33783 7.50041 4.45945 9.02252 4.45945C10.5122 4.45945 11.4838 5.30405 11.4838 7.56756V24.527C11.4838 26.7567 10.5446 27.6351 9.02252 27.6351C7.5328 27.6351 6.56124 26.7905 6.56124 24.527V7.56756Z" fill="#353535"/>
<path d="M96.0418 7.90539C96.0418 16.8581 105.272 18.0743 105.272 24.527C105.272 26.7567 104.332 27.5675 102.81 27.5675C101.321 27.5675 100.349 26.7567 100.349 24.527V22.2973H95.8799V24.2229C95.8799 29.2567 98.2764 32.1283 102.94 32.1283C107.571 32.1283 110 29.2567 110 24.2229C110 15.2702 100.77 14.054 100.77 7.60134C100.77 5.37161 101.644 4.49324 103.134 4.49324C104.624 4.49324 105.498 5.33783 105.498 7.60134V8.88512H109.967V7.90539C109.967 2.87162 107.603 0 103.005 0C98.4059 0 96.0418 2.87162 96.0418 7.90539Z" fill="#DF0000"/>
<path d="M7.49489 42.27C8.01422 42.802 8.27389 43.7963 8.27389 45.253C8.27389 46.7097 8.01422 47.704 7.49489 48.236C6.98822 48.7553 6.27256 49.015 5.34789 49.015H3.80889V55H2.68789V41.472H5.34789C6.27256 41.472 6.98822 41.738 7.49489 42.27ZM6.67789 47.438C6.99456 47.0453 7.15289 46.317 7.15289 45.253C7.15289 44.189 6.99456 43.4607 6.67789 43.068C6.36122 42.6753 5.89889 42.479 5.29089 42.479H3.80889V48.008H5.29089C5.89889 48.008 6.36122 47.818 6.67789 47.438ZM16.5039 55H15.3069L13.3499 48.939H11.6019V55H10.4809V41.472H13.1409C14.0782 41.472 14.8002 41.7317 15.3069 42.251C15.8135 42.7703 16.0669 43.7583 16.0669 45.215C16.0669 47.1403 15.5095 48.312 14.3949 48.73L16.5039 55ZM14.5469 47.267C14.8129 46.8237 14.9459 46.1397 14.9459 45.215C14.9459 44.2903 14.8129 43.6063 14.5469 43.163C14.2935 42.707 13.8375 42.479 13.1789 42.479H11.6019V47.932H13.1789C13.8375 47.932 14.2935 47.7103 14.5469 47.267ZM23.8947 43.885C24.0087 44.6197 24.0657 46.07 24.0657 48.236C24.0657 50.402 24.0087 51.8587 23.8947 52.606C23.7807 53.3407 23.521 53.9233 23.1157 54.354C22.6217 54.886 21.944 55.152 21.0827 55.152C20.234 55.152 19.5627 54.886 19.0687 54.354C18.6634 53.9233 18.4037 53.3407 18.2897 52.606C18.1757 51.8587 18.1187 50.402 18.1187 48.236C18.1187 46.07 18.1757 44.6197 18.2897 43.885C18.4037 43.1377 18.6634 42.5487 19.0687 42.118C19.5627 41.586 20.234 41.32 21.0827 41.32C21.944 41.32 22.6217 41.586 23.1157 42.118C23.521 42.5487 23.7807 43.1377 23.8947 43.885ZM22.8307 52.207C22.9067 51.5483 22.9447 50.2247 22.9447 48.236C22.9447 46.2473 22.9067 44.93 22.8307 44.284C22.7547 43.6253 22.5774 43.1377 22.2987 42.821C22.0074 42.4917 21.602 42.327 21.0827 42.327C20.576 42.327 20.177 42.4917 19.8857 42.821C19.607 43.1377 19.4297 43.6253 19.3537 44.284C19.2777 44.93 19.2397 46.2473 19.2397 48.236C19.2397 50.2247 19.2777 51.5483 19.3537 52.207C19.4297 52.853 19.607 53.3343 19.8857 53.651C20.177 53.9803 20.576 54.145 21.0827 54.145C21.602 54.145 22.0074 53.9803 22.2987 53.651C22.5774 53.3343 22.7547 52.853 22.8307 52.207ZM29.7564 52.093C29.7564 53.081 29.4904 53.841 28.9584 54.373C28.439 54.8923 27.755 55.152 26.9064 55.152C26.007 55.152 25.2914 54.8353 24.7594 54.202L25.5764 53.461C25.9057 53.917 26.349 54.145 26.9064 54.145C27.413 54.145 27.8247 53.9677 28.1414 53.613C28.4707 53.2457 28.6354 52.739 28.6354 52.093V41.472H29.7564V52.093ZM36.939 55H32.227V41.472H36.939V42.479H33.348V47.723H36.445V48.73H33.348V53.993H36.939V55ZM44.6388 51.903C44.6135 53.081 44.2968 53.9487 43.6888 54.506C43.2202 54.9367 42.5995 55.152 41.8268 55.152C40.9782 55.152 40.3068 54.886 39.8128 54.354C39.4075 53.9233 39.1478 53.3407 39.0338 52.606C38.9198 51.8587 38.8628 50.402 38.8628 48.236C38.8628 46.07 38.9198 44.6197 39.0338 43.885C39.1478 43.1377 39.4075 42.5487 39.8128 42.118C40.3068 41.586 40.9782 41.32 41.8268 41.32C42.6375 41.32 43.2835 41.5607 43.7648 42.042C44.3222 42.5993 44.6135 43.4417 44.6388 44.569H43.5178C43.5178 43.7457 43.3405 43.1503 42.9858 42.783C42.7072 42.479 42.3208 42.327 41.8268 42.327C41.3202 42.327 40.9212 42.4917 40.6298 42.821C40.3512 43.1377 40.1738 43.6253 40.0978 44.284C40.0218 44.93 39.9838 46.2473 39.9838 48.236C39.9838 50.2247 40.0218 51.5483 40.0978 52.207C40.1738 52.853 40.3512 53.3343 40.6298 53.651C40.9212 53.9803 41.3202 54.145 41.8268 54.145C42.3208 54.145 42.7072 53.993 42.9858 53.689C43.3405 53.3217 43.5178 52.7263 43.5178 51.903H44.6388ZM51.3012 42.479H49.0402V55H47.9192V42.479H45.6582V41.472H51.3012V42.479ZM62.2861 43.98C62.4001 44.702 62.4571 46.1207 62.4571 48.236C62.4571 50.3513 62.4001 51.77 62.2861 52.492C62.1721 53.214 61.9125 53.7903 61.5071 54.221C61.0131 54.7403 60.3418 55 59.4931 55H56.7191V41.472H59.4931C60.3418 41.472 61.0131 41.7317 61.5071 42.251C61.9125 42.6817 62.1721 43.258 62.2861 43.98ZM61.2221 52.131C61.2981 51.4977 61.3361 50.1993 61.3361 48.236C61.3361 46.2727 61.2981 44.9807 61.2221 44.36C61.1461 43.7267 60.9625 43.258 60.6711 42.954C60.3925 42.6373 59.9808 42.479 59.4361 42.479H57.8401V53.993H59.4361C59.9808 53.993 60.3925 53.8347 60.6711 53.518C60.9625 53.214 61.1461 52.7517 61.2221 52.131ZM69.4839 55H64.7719V41.472H69.4839V42.479H65.8929V47.723H68.9899V48.73H65.8929V53.993H69.4839V55ZM76.4048 55H71.6928V41.472H72.8138V53.993H76.4048V55ZM79.2523 55H78.1313V41.472H79.2523V55ZM87.5223 41.472L84.6343 55H83.5323L80.6443 41.472H81.8793L84.0833 52.986L86.2873 41.472H87.5223ZM93.6235 55H88.9115V41.472H93.6235V42.479H90.0325V47.723H93.1295V48.73H90.0325V53.993H93.6235V55ZM101.855 55H100.658L98.7014 48.939H96.9534V55H95.8324V41.472H98.4924C99.4298 41.472 100.152 41.7317 100.658 42.251C101.165 42.7703 101.418 43.7583 101.418 45.215C101.418 47.1403 100.861 48.312 99.7464 48.73L101.855 55ZM99.8984 47.267C100.164 46.8237 100.297 46.1397 100.297 45.215C100.297 44.2903 100.164 43.6063 99.8984 43.163C99.6451 42.707 99.1891 42.479 98.5304 42.479H96.9534V47.932H98.5304C99.1891 47.932 99.6451 47.7103 99.8984 47.267ZM108.558 41.472L106.183 49.338V55H105.062V49.338L102.687 41.472H103.922L105.613 47.666L107.323 41.472H108.558Z" fill="#353535"/>
</svg>
