<svg width="451" height="166" viewBox="0 0 451 166" fill="none" xmlns="http://www.w3.org/2000/svg">
<path d="M282.15 104.169H297.983V1.219H284.261V62.834L268.427 1.219H249.111V104.169H262.938V29.5885L282.15 104.169ZM222.616 104.169H238.027V1.219H222.616V104.169ZM199.711 104.169H215.544L194.116 47.0978L215.544 1.219H200.133L179.972 46.1004V1.219H164.561V104.169H179.972V72.4752L184.722 63.0556L199.711 104.169ZM107.878 79.4568C107.878 95.9687 116.111 105.388 131.311 105.388C146.405 105.388 154.744 95.9687 154.744 79.4568V25.9315C154.744 9.41956 146.511 0 131.311 0C116.111 0 107.878 9.41956 107.878 25.9315V79.4568ZM123.289 24.8233C123.289 17.5093 126.35 14.628 131.311 14.628C136.166 14.628 139.333 17.3985 139.333 24.8233V80.4541C139.333 87.7681 136.272 90.6494 131.311 90.6494C126.455 90.6494 123.289 87.879 123.289 80.4541V24.8233ZM54.7832 25.9315C54.7832 55.2984 84.8665 59.2878 84.8665 80.4541C84.8665 87.7681 81.8054 90.4278 76.8443 90.4278C71.9888 90.4278 68.8221 87.7681 68.8221 80.4541V73.1401H54.361V79.4568C54.361 95.9687 62.1721 105.388 77.3721 105.388C92.4665 105.388 100.383 95.9687 100.383 79.4568C100.383 50.0899 70.2999 46.1004 70.2999 24.9341C70.2999 17.6201 73.1499 14.7388 78.0054 14.7388C82.861 14.7388 85.711 17.5093 85.711 24.9341V29.1452H100.278V25.9315C100.172 9.41956 92.4665 0 77.4777 0C62.4888 0 54.7832 9.41956 54.7832 25.9315ZM0 79.4568C0 95.8579 8.23332 105.277 23.4333 105.277C38.5277 105.277 46.8666 95.8579 46.8666 79.3459V25.9315C46.761 9.41956 38.5277 0 23.4333 0C8.23332 0 0 9.41956 0 25.9315V79.4568ZM15.4111 24.8233C15.4111 17.5093 18.4722 14.628 23.4333 14.628C28.2888 14.628 31.4555 17.3985 31.4555 24.8233V80.4541C31.4555 87.7681 28.3944 90.6494 23.4333 90.6494C18.5777 90.6494 15.4111 87.879 15.4111 80.4541V24.8233Z" fill="white"/>
<path d="M307.06 25.9315C307.06 55.2984 337.143 59.2878 337.143 80.4541C337.143 87.7681 334.082 90.4278 329.121 90.4278C324.266 90.4278 321.099 87.7681 321.099 80.4541V73.1401H306.532V79.4568C306.532 95.9687 314.343 105.388 329.543 105.388C344.638 105.388 352.554 95.9687 352.554 79.4568C352.554 50.0899 322.471 46.1004 322.471 24.9341C322.471 17.6201 325.321 14.7388 330.177 14.7388C335.032 14.7388 337.882 17.5093 337.882 24.9341V29.1452H352.449V25.9315C352.449 9.41956 344.743 0 329.754 0C314.766 0 307.06 9.41956 307.06 25.9315Z" fill="#DF0000"/>
<path d="M263.671 139.78C264.618 140.751 265.092 142.564 265.092 145.221C265.092 147.878 264.618 149.692 263.671 150.662C262.747 151.61 261.441 152.083 259.755 152.083H256.947V163H254.903V138.325H259.755C261.441 138.325 262.747 138.81 263.671 139.78ZM262.181 149.207C262.758 148.491 263.047 147.162 263.047 145.221C263.047 143.281 262.758 141.952 262.181 141.236C261.603 140.52 260.76 140.162 259.651 140.162H256.947V150.247H259.651C260.76 150.247 261.603 149.9 262.181 149.207ZM280.103 163H277.92L274.35 151.945H271.162V163H269.117V138.325H273.969C275.679 138.325 276.996 138.798 277.92 139.746C278.844 140.693 279.306 142.495 279.306 145.152C279.306 148.664 278.29 150.801 276.256 151.563L280.103 163ZM276.534 148.895C277.019 148.086 277.261 146.839 277.261 145.152C277.261 143.465 277.019 142.218 276.534 141.409C276.072 140.577 275.24 140.162 274.038 140.162H271.162V150.108H274.038C275.24 150.108 276.072 149.704 276.534 148.895ZM293.584 142.726C293.792 144.066 293.896 146.712 293.896 150.662C293.896 154.613 293.792 157.27 293.584 158.633C293.376 159.973 292.903 161.036 292.163 161.822C291.262 162.792 290.026 163.277 288.455 163.277C286.907 163.277 285.683 162.792 284.782 161.822C284.042 161.036 283.569 159.973 283.361 158.633C283.153 157.27 283.049 154.613 283.049 150.662C283.049 146.712 283.153 144.066 283.361 142.726C283.569 141.363 284.042 140.289 284.782 139.503C285.683 138.533 286.907 138.048 288.455 138.048C290.026 138.048 291.262 138.533 292.163 139.503C292.903 140.289 293.376 141.363 293.584 142.726ZM291.643 157.906C291.782 156.704 291.851 154.29 291.851 150.662C291.851 147.035 291.782 144.632 291.643 143.454C291.505 142.252 291.181 141.363 290.673 140.785C290.142 140.185 289.402 139.884 288.455 139.884C287.531 139.884 286.803 140.185 286.272 140.785C285.763 141.363 285.44 142.252 285.301 143.454C285.163 144.632 285.093 147.035 285.093 150.662C285.093 154.29 285.163 156.704 285.301 157.906C285.44 159.084 285.763 159.962 286.272 160.539C286.803 161.14 287.531 161.44 288.455 161.44C289.402 161.44 290.142 161.14 290.673 160.539C291.181 159.962 291.505 159.084 291.643 157.906ZM304.276 157.698C304.276 159.5 303.791 160.886 302.82 161.856C301.873 162.804 300.625 163.277 299.077 163.277C297.437 163.277 296.132 162.7 295.161 161.544L296.652 160.193C297.252 161.025 298.061 161.44 299.077 161.44C300.002 161.44 300.753 161.117 301.33 160.47C301.931 159.8 302.231 158.876 302.231 157.698V138.325H304.276V157.698ZM317.377 163H308.782V138.325H317.377V140.162H310.827V149.727H316.476V151.563H310.827V161.163H317.377V163ZM331.422 157.351C331.376 159.5 330.798 161.082 329.689 162.099C328.834 162.884 327.702 163.277 326.293 163.277C324.745 163.277 323.52 162.792 322.619 161.822C321.88 161.036 321.406 159.973 321.198 158.633C320.99 157.27 320.886 154.613 320.886 150.662C320.886 146.712 320.99 144.066 321.198 142.726C321.406 141.363 321.88 140.289 322.619 139.503C323.52 138.533 324.745 138.048 326.293 138.048C327.771 138.048 328.95 138.487 329.828 139.364C330.844 140.381 331.376 141.917 331.422 143.974H329.377C329.377 142.472 329.054 141.386 328.407 140.716C327.898 140.162 327.194 139.884 326.293 139.884C325.368 139.884 324.641 140.185 324.109 140.785C323.601 141.363 323.278 142.252 323.139 143.454C323 144.632 322.931 147.035 322.931 150.662C322.931 154.29 323 156.704 323.139 157.906C323.278 159.084 323.601 159.962 324.109 160.539C324.641 161.14 325.368 161.44 326.293 161.44C327.194 161.44 327.898 161.163 328.407 160.609C329.054 159.939 329.377 158.853 329.377 157.351H331.422ZM343.574 140.162H339.45V163H337.405V140.162H333.281V138.325H343.574V140.162ZM363.611 142.899C363.818 144.216 363.922 146.804 363.922 150.662C363.922 154.521 363.818 157.108 363.611 158.425C363.403 159.742 362.929 160.794 362.19 161.579C361.289 162.526 360.064 163 358.516 163H353.456V138.325H358.516C360.064 138.325 361.289 138.798 362.19 139.746C362.929 140.531 363.403 141.582 363.611 142.899ZM361.67 157.767C361.808 156.612 361.878 154.244 361.878 150.662C361.878 147.081 361.808 144.725 361.67 143.593C361.531 142.437 361.196 141.582 360.665 141.028C360.156 140.45 359.406 140.162 358.412 140.162H355.501V161.163H358.412C359.406 161.163 360.156 160.874 360.665 160.297C361.196 159.742 361.531 158.899 361.67 157.767ZM376.739 163H368.145V138.325H376.739V140.162H370.189V149.727H375.838V151.563H370.189V161.163H376.739V163ZM389.363 163H380.768V138.325H382.813V161.163H389.363V163ZM394.557 163H392.512V138.325H394.557V163ZM409.642 138.325L404.374 163H402.364L397.096 138.325H399.349L403.369 159.326L407.389 138.325H409.642ZM420.77 163H412.176V138.325H420.77V140.162H414.22V149.727H419.869V151.563H414.22V161.163H420.77V163ZM435.785 163H433.602L430.032 151.945H426.844V163H424.799V138.325H429.651C431.361 138.325 432.678 138.798 433.602 139.746C434.526 140.693 434.988 142.495 434.988 145.152C434.988 148.664 433.972 150.801 431.939 151.563L435.785 163ZM432.216 148.895C432.701 148.086 432.944 146.839 432.944 145.152C432.944 143.465 432.701 142.218 432.216 141.409C431.754 140.577 430.922 140.162 429.721 140.162H426.844V150.108H429.721C430.922 150.108 431.754 149.704 432.216 148.895ZM448.011 138.325L443.679 152.672V163H441.634V152.672L437.302 138.325H439.554L442.639 149.623L445.758 138.325H448.011Z" fill="white"/>
</svg>
