<svg width="25" height="26" viewBox="0 0 25 26" fill="none" xmlns="http://www.w3.org/2000/svg">
<path d="M20.5838 9.63173C20.3356 8.35063 19.7135 7.17326 18.7971 6.25029C17.8808 5.32733 16.7118 4.70076 15.4399 4.45076C15.3092 4.42421 15.1745 4.42397 15.0437 4.45003C14.9129 4.4761 14.7885 4.52797 14.6776 4.60265C14.5668 4.67733 14.4717 4.77334 14.3978 4.88518C14.324 4.99701 14.2728 5.12246 14.2472 5.25429C14.2217 5.38612 14.2223 5.52173 14.249 5.65333C14.2757 5.78493 14.3279 5.90992 14.4028 6.0211C14.4776 6.13228 14.5735 6.22745 14.685 6.30115C14.7965 6.37486 14.9213 6.42563 15.0524 6.45054C15.9289 6.62095 16.7347 7.0518 17.3659 7.68759C17.9972 8.32339 18.425 9.13499 18.5941 10.0178C18.6469 10.2816 18.8012 10.5137 19.0233 10.6633C19.2454 10.8129 19.5172 10.868 19.7794 10.8164C20.0417 10.7649 20.273 10.6109 20.4229 10.3882C20.5729 10.1654 20.6292 9.89197 20.5796 9.62754L20.5838 9.63173Z" fill="white"/>
<path d="M24.9926 9.70219C24.7162 7.22444 23.6115 4.91501 21.86 3.15309C20.1084 1.39117 17.8142 0.281476 15.3539 0.00620548C15.0871 -0.0235699 14.8196 0.0546046 14.61 0.223532C14.4005 0.392459 14.2662 0.6383 14.2366 0.906974C14.2071 1.17565 14.2847 1.44515 14.4524 1.65618C14.6201 1.86722 14.8642 2.0025 15.1309 2.03228C17.1371 2.2494 19.0092 3.15111 20.4364 4.5877C21.8636 6.02429 22.7601 7.90934 22.977 9.92988C23.0046 10.1787 23.1223 10.4086 23.3075 10.5756C23.4928 10.7427 23.7326 10.8351 23.9812 10.8354C24.0195 10.8354 24.0577 10.8333 24.0958 10.8291C24.2282 10.8147 24.3566 10.7741 24.4735 10.7097C24.5903 10.6452 24.6934 10.5581 24.7767 10.4534C24.86 10.3487 24.922 10.2284 24.9591 10.0995C24.9962 9.97057 25.0075 9.83556 24.9926 9.70219Z" fill="white"/>
<path d="M21.1384 15.3997H21.129C20.1492 15.2696 19.1872 15.0285 18.2612 14.681C17.6862 14.4645 17.0617 14.418 16.4614 14.547C15.861 14.676 15.3098 14.9751 14.8726 15.4091L14.034 16.2537C11.9483 14.9268 10.1825 13.1483 8.86511 11.0476L9.70367 10.203C10.1343 9.76288 10.4311 9.20802 10.5592 8.60374C10.6872 7.99945 10.6412 7.37089 10.4266 6.79204C10.0811 5.85869 9.84141 4.88903 9.71201 3.90149V3.88995C9.60131 3.11435 9.21564 2.40531 8.62627 1.89384C8.03689 1.38237 7.28363 1.10305 6.50567 1.10747H3.2087C3.11391 1.10747 3.01703 1.10747 2.92224 1.12111C2.07417 1.1994 1.29157 1.61331 0.746129 2.27205C0.200686 2.93078 -0.0630497 3.78054 0.012783 4.63489V4.65062C0.394456 8.23187 1.60389 11.6732 3.54413 14.6988C5.31528 17.4963 7.67207 19.8701 10.4495 21.654C13.44 23.6014 16.8402 24.8192 20.38 25.2108H20.3988C20.4946 25.2192 20.5915 25.2234 20.6884 25.2234H20.7008C21.5518 25.2192 22.3664 24.8754 22.9661 24.2672C23.5658 23.6591 23.9016 22.8363 23.8999 21.9792V18.669C23.916 17.8782 23.6439 17.1089 23.1351 16.5065C22.6263 15.9041 21.9159 15.5103 21.1384 15.3997ZM21.8769 18.6575V21.9855C21.8778 22.3028 21.7536 22.6074 21.5318 22.8326C21.31 23.0578 21.0085 23.1852 20.6936 23.1869C20.6581 23.1869 20.6238 23.1869 20.5894 23.1869C17.3666 22.8286 14.271 21.7186 11.5485 19.9448H11.5402C9.00994 18.3191 6.86351 16.1554 5.25147 13.6056V13.5982C3.48329 10.8419 2.38088 7.70671 2.03263 4.44393C2.00659 4.12894 2.10518 3.81635 2.30693 3.57424C2.50867 3.33213 2.79723 3.18012 3.10974 3.15132C3.14516 3.15132 3.18058 3.15132 3.21391 3.15132H6.53171C6.81729 3.15204 7.09311 3.25604 7.30897 3.44437C7.52482 3.6327 7.66635 3.89284 7.70779 4.17743C7.85745 5.31625 8.13421 6.43443 8.53281 7.51074C8.6118 7.72435 8.62876 7.9562 8.58172 8.17916C8.53468 8.40212 8.42558 8.60699 8.26718 8.76979L6.87235 10.1705C6.71568 10.3283 6.61482 10.5336 6.58528 10.7549C6.55573 10.9761 6.59913 11.2009 6.7088 11.3949C8.36506 14.3278 10.7762 16.7563 13.6882 18.4245C13.8808 18.5349 14.1042 18.5784 14.3238 18.5484C14.5434 18.5185 14.7472 18.4167 14.9038 18.2588L16.2976 16.8581C16.4594 16.6988 16.6629 16.5892 16.8842 16.542C17.1055 16.4948 17.3356 16.512 17.5476 16.5916C18.6156 16.9926 19.7251 17.271 20.855 17.4215C21.1428 17.4633 21.4053 17.6099 21.5929 17.8337C21.7805 18.0574 21.8801 18.3427 21.8728 18.6354C21.8755 18.6396 21.8769 18.647 21.8769 18.6575Z" fill="white"/>
</svg>
