<svg width="52" height="51" viewBox="0 0 52 51" fill="none" xmlns="http://www.w3.org/2000/svg">
<path d="M0.418945 3.07528C0.418945 1.62558 0.418945 0.90073 0.86931 0.450365C1.31968 0 2.04453 0 3.49423 0H48.0858C49.5355 0 50.2604 0 50.7108 0.450365C51.1611 0.90073 51.1611 1.62558 51.1611 3.07528V47.6669C51.1611 49.1166 51.1611 49.8415 50.7108 50.2918C50.2604 50.7422 49.5355 50.7422 48.0858 50.7422H3.49423C2.04453 50.7422 1.31968 50.7422 0.86931 50.2918C0.418945 49.8415 0.418945 49.1166 0.418945 47.6669V3.07528Z" fill="#DF0000"/>
<path d="M39.9572 22.9316C39.9572 22.3352 39.8578 21.6393 39.8578 20.8441C39.7584 20.0489 39.659 19.2537 39.5595 18.5579C39.3607 17.7626 39.0625 17.1662 38.4661 16.6692C37.9691 16.1722 37.2733 15.874 36.5775 15.7746C34.2912 15.4764 30.9115 15.377 26.3389 15.377C21.7664 15.377 18.2873 15.4764 16.1004 15.7746C15.4046 15.874 14.7088 16.1722 14.2118 16.6692C13.7147 17.1662 13.3171 17.7626 13.1183 18.5579C12.9195 19.2537 12.8201 19.9495 12.8201 20.8441C12.7207 21.6393 12.7207 22.3352 12.7207 22.9316C12.7207 23.528 12.7207 24.2238 12.7207 25.2179C12.7207 26.2119 12.7207 27.0071 12.7207 27.5041C12.7207 28.1005 12.8201 28.7964 12.8201 29.5916C12.9195 30.3868 13.0189 31.182 13.1183 31.8779C13.3171 32.6731 13.6153 33.2695 14.2118 33.7665C14.7088 34.2635 15.4046 34.5618 16.1004 34.6612C18.3867 34.9594 21.7664 35.0588 26.3389 35.0588C30.9115 35.0588 34.3906 34.9594 36.5775 34.6612C37.2733 34.5618 37.9691 34.2635 38.4661 33.7665C38.9631 33.2695 39.3607 32.6731 39.5595 31.8779C39.7584 31.182 39.8578 30.4862 39.8578 29.5916C39.9572 28.7964 39.9572 28.1005 39.9572 27.5041C39.9572 26.9077 39.9572 26.2119 39.9572 25.2179C39.9572 24.2238 39.9572 23.4286 39.9572 22.9316ZM31.6073 26.0131L23.7545 30.8838C23.6551 30.9832 23.4562 31.0827 23.2574 31.0827C23.0586 31.0827 22.9592 31.0826 22.7604 30.9832C22.4622 30.7844 22.2634 30.4862 22.2634 30.0886V20.2477C22.2634 19.8501 22.4622 19.5519 22.7604 19.3531C23.0586 19.1543 23.4562 19.1543 23.7545 19.3531L31.6073 24.2238C31.9055 24.4226 32.1043 24.7208 32.1043 25.0191C32.1043 25.3173 31.9055 25.8143 31.6073 26.0131Z" fill="white"/>
</svg>
